<?xml version="1.0" encoding="UTF-8" standalone="no"?>
<!DOCTYPE svg PUBLIC "-//W3C//DTD SVG 1.1//EN" "http://www.w3.org/Graphics/SVG/1.1/DTD/svg11.dtd">
<svg id="svg" version="1.1" xmlns="http://www.w3.org/2000/svg" xmlns:xlink="http://www.w3.org/1999/xlink" width="400" height="225" viewBox="0, 0, 400,225">
	<g id="svgg">
		<path id="path0" d="M0.000 112.500 L 0.000 225.000 200.000 225.000 L 400.000 225.000 400.000 112.500 L 400.000 0.000 200.000 0.000 L 0.000 0.000 0.000 112.500 M305.573 80.452 C 306.058 80.599,306.285 80.815,306.374 81.214 C 306.442 81.520,306.629 82.066,306.790 82.427 C 307.875 84.858,306.153 87.576,303.567 87.516 C 303.037 87.504,302.419 87.491,302.193 87.487 C 301.968 87.484,301.639 87.356,301.464 87.203 C 301.289 87.050,300.956 86.867,300.724 86.796 C 300.135 86.618,299.167 84.326,299.167 83.112 C 299.167 82.008,300.283 80.765,301.510 80.502 C 301.596 80.484,301.690 80.450,301.719 80.428 C 301.747 80.405,302.143 80.342,302.597 80.287 C 303.052 80.232,303.461 80.150,303.507 80.104 C 303.611 80.000,304.671 80.179,305.573 80.452 M325.823 80.629 C 327.360 81.114,328.183 81.251,329.573 81.254 C 334.827 81.264,341.518 83.411,347.110 86.879 C 350.709 89.111,355.765 89.960,360.038 89.051 C 365.620 87.862,374.106 87.863,380.913 89.052 C 382.146 89.267,384.077 89.375,386.704 89.375 C 391.038 89.375,391.620 89.504,392.057 90.563 C 392.236 90.995,392.284 97.617,392.243 116.215 L 392.188 141.284 391.507 141.892 L 390.827 142.500 372.083 142.500 L 353.340 142.500 351.097 141.439 C 341.122 136.719,332.601 134.001,324.919 133.089 C 321.203 132.648,321.464 133.660,321.461 119.635 C 321.458 108.985,321.457 108.958,321.028 108.958 C 320.460 108.958,319.828 108.622,319.063 107.912 C 318.719 107.593,317.500 106.938,316.354 106.455 C 313.277 105.161,310.569 103.784,310.165 103.310 C 309.264 102.252,308.958 103.036,308.958 106.405 L 308.958 109.461 309.792 110.649 C 310.814 112.107,311.003 113.727,310.156 113.778 L 309.688 113.807 310.163 113.898 C 312.478 114.342,313.042 122.564,311.555 134.167 C 310.614 141.505,310.436 142.348,309.792 142.500 C 308.311 142.850,309.392 145.093,311.320 145.671 C 312.195 145.933,312.470 146.305,312.110 146.739 C 311.921 146.966,311.414 146.937,309.222 146.575 C 306.260 146.086,305.929 145.794,306.810 144.448 C 307.144 143.939,307.191 143.320,307.220 139.072 C 307.258 133.500,307.421 130.955,307.823 129.619 C 308.109 128.666,308.107 128.654,306.607 124.415 L 305.104 120.166 304.957 121.698 C 304.875 122.540,304.663 126.885,304.485 131.354 C 303.931 145.231,303.984 144.583,303.409 144.583 C 302.166 144.583,304.128 146.285,305.677 146.551 C 306.331 146.664,306.458 146.769,306.458 147.197 L 306.458 147.708 315.104 147.708 C 320.729 147.708,323.750 147.781,323.750 147.917 C 323.750 148.054,317.222 148.125,304.583 148.125 C 291.944 148.125,285.417 148.054,285.417 147.917 C 285.417 147.789,286.389 147.708,287.917 147.708 C 289.292 147.708,290.417 147.649,290.417 147.576 C 290.417 147.504,290.315 147.105,290.191 146.691 L 289.966 145.938 288.881 146.006 C 287.575 146.089,287.216 145.831,286.293 144.142 C 285.824 143.285,285.715 142.910,285.884 142.741 C 286.053 142.572,286.022 142.407,285.766 142.124 C 284.447 140.667,287.382 141.152,288.999 142.658 L 289.561 143.182 289.663 142.685 C 289.719 142.411,289.818 141.813,289.883 141.354 C 289.947 140.896,290.058 140.310,290.128 140.052 C 290.242 139.637,290.181 139.583,289.592 139.583 C 288.115 139.583,286.941 136.730,287.969 135.641 C 288.177 135.420,288.177 135.345,287.969 135.269 C 287.548 135.115,287.669 134.619,288.215 134.261 C 289.107 133.677,290.695 135.208,290.968 136.914 L 291.096 137.716 291.573 137.069 C 292.050 136.423,291.982 135.428,291.438 135.091 C 290.616 134.583,292.207 132.657,293.059 133.129 C 294.177 133.747,293.990 135.546,292.714 136.455 C 290.836 137.791,289.574 143.149,290.449 146.068 L 290.690 146.872 291.169 145.694 C 291.786 144.176,292.695 143.660,293.123 144.583 C 293.203 144.755,293.377 145.105,293.509 145.362 C 293.841 146.004,293.811 146.589,293.414 147.195 L 293.077 147.708 296.903 147.708 L 300.729 147.708 300.766 146.927 C 300.786 146.497,300.866 145.794,300.945 145.365 C 301.058 144.742,301.023 144.583,300.770 144.583 C 300.412 144.583,300.361 144.329,299.900 140.313 C 299.407 136.007,299.174 131.301,299.369 129.583 C 299.467 128.724,299.500 127.974,299.441 127.917 C 299.117 127.597,295.384 127.929,293.674 128.430 C 292.256 128.845,291.761 128.915,291.539 128.730 C 291.210 128.457,291.107 115.965,291.430 115.456 C 291.643 115.119,294.375 114.718,295.562 114.849 C 296.662 114.971,296.603 115.257,296.781 109.010 C 296.901 104.798,296.879 104.167,296.609 104.167 C 295.900 104.167,295.954 101.452,296.771 96.042 C 297.308 92.482,297.582 91.667,298.238 91.667 C 298.877 91.667,301.047 89.933,301.666 88.928 C 302.204 88.053,302.392 87.895,302.772 87.997 C 303.023 88.064,303.657 88.121,304.180 88.122 C 305.069 88.125,305.162 88.179,305.590 88.940 C 305.847 89.399,306.435 89.983,306.930 90.275 C 307.416 90.560,308.026 91.022,308.286 91.301 C 308.908 91.967,311.928 98.688,311.937 99.427 C 311.941 99.742,312.035 100.000,312.145 100.000 C 312.258 100.000,312.295 100.316,312.229 100.720 C 312.113 101.440,312.113 101.440,313.853 102.366 C 314.810 102.875,316.468 103.853,317.536 104.538 C 318.605 105.224,319.829 105.897,320.258 106.033 C 320.686 106.169,321.107 106.391,321.195 106.526 C 321.283 106.660,321.401 101.095,321.458 94.157 C 321.555 82.443,321.589 81.503,321.939 80.969 C 322.668 79.858,323.225 79.809,325.823 80.629 M322.518 80.746 L 321.879 81.284 321.880 106.488 L 321.881 131.692 322.356 132.167 C 322.720 132.530,323.172 132.676,324.280 132.785 C 331.708 133.515,340.717 136.306,350.534 140.916 L 353.464 142.292 371.927 142.292 C 383.179 142.292,390.594 142.214,390.914 142.092 C 392.151 141.622,392.093 142.983,392.034 115.612 L 391.979 90.589 391.395 90.086 C 390.830 89.601,390.702 89.584,387.645 89.600 C 385.904 89.609,384.573 89.647,384.688 89.685 C 384.802 89.723,385.786 89.960,386.875 90.212 C 391.046 91.178,390.625 88.354,390.625 115.340 C 390.625 139.906,390.671 138.895,389.513 139.641 C 388.565 140.252,388.460 140.248,384.896 139.485 C 374.072 137.167,364.102 137.391,355.444 140.147 L 353.700 140.702 350.131 138.903 C 342.022 134.813,334.087 132.326,326.667 131.549 C 325.121 131.387,323.898 130.804,323.563 130.068 C 323.400 129.710,323.333 122.805,323.333 106.268 L 323.333 82.973 323.785 82.399 C 324.289 81.758,325.313 81.261,326.191 81.229 C 326.588 81.215,326.277 81.051,325.208 80.710 C 323.274 80.092,323.296 80.092,322.518 80.746 M116.544 87.933 C 117.606 89.195,116.789 90.833,115.097 90.833 C 113.997 90.833,113.185 90.212,112.996 89.227 C 112.672 87.536,115.379 86.548,116.544 87.933 M150.417 90.666 L 150.417 94.040 151.094 93.387 C 153.306 91.253,157.116 92.198,158.155 95.138 C 160.081 100.586,154.633 106.377,150.885 102.866 L 150.417 102.427 150.417 102.985 L 150.417 103.542 148.646 103.542 L 146.875 103.542 146.875 95.417 L 146.875 87.292 148.646 87.292 L 150.417 87.292 150.417 90.666 M190.631 92.344 L 190.636 97.396 192.229 94.948 L 193.823 92.500 195.882 92.500 C 197.474 92.500,197.906 92.559,197.784 92.760 C 197.698 92.904,196.840 94.071,195.878 95.356 L 194.129 97.690 196.229 100.616 L 198.329 103.542 196.196 103.541 L 194.063 103.540 192.348 100.884 L 190.633 98.229 190.629 100.885 L 190.625 103.542 188.854 103.542 L 187.083 103.542 187.083 95.417 L 187.083 87.292 188.854 87.292 L 190.625 87.292 190.631 92.344 M349.697 88.509 C 352.084 90.642,353.274 90.955,355.833 90.124 L 357.396 89.617 355.299 89.600 C 353.548 89.586,352.899 89.480,351.350 88.957 C 350.331 88.613,349.587 88.411,349.697 88.509 M66.701 93.022 C 68.045 93.954,68.750 95.472,68.750 97.433 L 68.750 98.958 65.208 98.958 C 63.260 98.958,61.667 99.008,61.667 99.069 C 61.667 99.130,61.804 99.509,61.972 99.910 C 62.609 101.436,64.827 101.679,67.563 100.523 C 67.905 100.378,67.932 100.481,67.875 101.687 L 67.813 103.011 66.875 103.369 C 61.330 105.489,56.375 100.721,58.719 95.521 C 60.081 92.500,64.124 91.235,66.701 93.022 M90.243 93.022 C 91.586 93.954,92.292 95.472,92.292 97.433 L 92.292 98.958 88.750 98.958 C 86.802 98.958,85.208 99.008,85.208 99.069 C 85.208 99.130,85.346 99.509,85.513 99.910 C 86.151 101.436,88.369 101.679,91.104 100.523 C 91.446 100.378,91.474 100.481,91.417 101.687 L 91.354 103.011 90.417 103.369 C 84.871 105.489,79.917 100.721,82.261 95.521 C 83.623 92.500,87.665 91.235,90.243 93.022 M101.458 93.942 L 101.458 95.591 100.739 95.393 C 98.616 94.807,97.858 96.067,97.746 100.365 L 97.664 103.542 95.915 103.542 L 94.167 103.542 94.167 98.021 L 94.167 92.500 95.938 92.500 L 97.708 92.500 97.717 93.385 L 97.725 94.271 98.041 93.687 C 98.487 92.865,99.524 92.293,100.573 92.292 L 101.458 92.292 101.458 93.942 M110.716 92.495 C 111.189 92.675,111.618 95.625,111.171 95.625 C 111.128 95.625,110.756 95.484,110.345 95.313 C 107.880 94.283,105.843 95.579,105.836 98.180 C 105.831 100.472,107.985 101.715,110.292 100.751 C 110.732 100.567,111.128 100.417,111.171 100.417 C 111.556 100.417,111.196 103.140,110.781 103.365 C 110.015 103.782,106.851 103.852,105.749 103.477 C 100.776 101.782,101.038 93.991,106.118 92.519 C 107.008 92.261,110.058 92.245,110.716 92.495 M126.420 92.581 C 126.665 92.732,126.787 95.417,126.549 95.417 C 126.484 95.417,126.251 95.320,126.031 95.203 C 124.545 94.408,122.221 94.640,122.331 95.572 C 122.387 96.047,122.624 96.207,124.136 96.797 C 130.449 99.257,126.762 105.096,119.870 103.554 L 118.750 103.303 118.750 101.860 C 118.750 100.268,118.734 100.290,119.572 100.724 C 121.150 101.539,123.519 101.527,123.836 100.700 C 124.033 100.189,123.644 99.867,122.120 99.283 C 118.533 97.908,117.592 95.483,119.833 93.389 C 120.870 92.422,125.286 91.879,126.420 92.581 M136.909 93.022 C 138.253 93.954,138.958 95.472,138.958 97.433 L 138.958 98.958 135.417 98.958 C 133.469 98.958,131.875 99.008,131.875 99.069 C 131.875 99.130,132.012 99.509,132.180 99.910 C 132.818 101.436,135.036 101.679,137.771 100.523 C 138.113 100.378,138.141 100.481,138.084 101.687 L 138.021 103.011 137.083 103.369 C 131.538 105.489,126.583 100.721,128.928 95.521 C 130.290 92.500,134.332 91.235,136.909 93.022 M168.345 92.608 C 171.169 93.604,172.595 97.097,171.482 100.288 C 169.918 104.769,162.339 104.999,160.340 100.625 C 158.063 95.642,162.982 90.716,168.345 92.608 M181.678 92.608 C 184.502 93.604,185.929 97.097,184.815 100.288 C 183.251 104.769,175.672 104.999,173.674 100.625 C 171.397 95.642,176.315 90.716,181.678 92.608 M74.650 94.367 L 75.604 96.233 76.601 94.367 L 77.599 92.500 79.533 92.500 L 81.467 92.500 79.744 95.052 C 78.796 96.456,77.990 97.674,77.952 97.758 C 77.914 97.843,78.686 99.179,79.667 100.727 L 81.451 103.542 79.370 103.542 L 77.289 103.542 76.410 101.771 C 75.346 99.626,75.512 99.626,74.375 101.771 L 73.438 103.539 71.403 103.540 L 69.368 103.542 71.212 100.781 L 73.057 98.021 72.393 96.979 C 72.027 96.406,71.245 95.164,70.654 94.219 L 69.580 92.500 71.638 92.500 L 73.695 92.500 74.650 94.367 M116.667 98.021 L 116.667 103.542 114.896 103.542 L 113.125 103.542 113.125 98.021 L 113.125 92.500 114.896 92.500 L 116.667 92.500 116.667 98.021 M62.892 94.888 C 62.435 95.143,61.667 96.311,61.667 96.750 C 61.667 96.819,62.547 96.875,63.624 96.875 L 65.581 96.875 65.410 96.117 C 65.117 94.817,63.997 94.271,62.892 94.888 M86.434 94.888 C 85.977 95.143,85.208 96.311,85.208 96.750 C 85.208 96.819,86.089 96.875,87.166 96.875 L 89.123 96.875 88.952 96.117 C 88.659 94.817,87.538 94.271,86.434 94.888 M133.100 94.888 C 132.644 95.143,131.875 96.311,131.875 96.750 C 131.875 96.819,132.756 96.875,133.832 96.875 L 135.789 96.875 135.618 96.117 C 135.325 94.817,134.205 94.271,133.100 94.888 M151.397 95.420 C 150.157 96.396,150.049 99.404,151.217 100.448 C 152.912 101.962,154.792 100.632,154.792 97.917 C 154.792 95.395,153.054 94.117,151.397 95.420 M164.326 95.608 C 162.640 97.115,163.664 101.042,165.743 101.042 C 167.422 101.042,168.167 100.094,168.167 97.957 C 168.167 95.246,166.127 93.999,164.326 95.608 M177.660 95.608 C 175.973 97.115,176.997 101.042,179.076 101.042 C 180.756 101.042,181.500 100.094,181.500 97.957 C 181.500 95.246,179.461 93.999,177.660 95.608 M306.825 114.106 C 307.084 114.156,307.459 114.154,307.659 114.101 C 307.858 114.049,307.646 114.009,307.188 114.011 C 306.729 114.013,306.566 114.056,306.825 114.106 M302.240 114.317 C 302.612 114.364,303.221 114.364,303.594 114.317 C 303.966 114.271,303.661 114.233,302.917 114.233 C 302.172 114.233,301.867 114.271,302.240 114.317 M21.875 132.500 L 21.875 147.708 18.542 147.708 L 15.208 147.708 15.208 132.500 L 15.208 117.292 18.542 117.292 L 21.875 117.292 21.875 132.500 M55.625 123.558 L 55.625 129.825 56.614 128.835 C 59.174 126.276,64.137 125.864,66.912 127.980 C 71.937 131.813,71.728 142.576,66.553 146.484 C 63.585 148.725,59.136 148.743,56.668 146.524 L 55.625 145.586 55.625 146.647 L 55.625 147.708 52.292 147.708 L 48.958 147.708 48.958 132.500 L 48.958 117.292 52.292 117.292 L 55.625 117.292 55.625 123.558 M103.333 132.500 L 103.333 147.708 100.000 147.708 L 96.667 147.708 96.667 132.500 L 96.667 117.292 100.000 117.292 L 103.333 117.292 103.333 132.500 M191.300 126.705 L 191.354 136.119 194.258 131.601 L 197.162 127.083 200.977 127.083 C 203.075 127.083,204.792 127.118,204.792 127.160 C 204.792 127.202,203.160 129.381,201.165 132.003 C 199.116 134.697,197.608 136.861,197.699 136.979 C 197.788 137.094,199.561 139.555,201.638 142.448 L 205.415 147.708 201.509 147.708 L 197.603 147.708 194.479 142.842 L 191.354 137.976 191.298 142.842 L 191.242 147.708 187.913 147.708 L 184.583 147.708 184.583 132.500 L 184.583 117.292 187.915 117.292 L 191.246 117.292 191.300 126.705 M40.133 127.610 C 43.719 129.439,44.039 130.445,44.124 140.156 L 44.190 147.708 41.158 147.708 L 38.125 147.708 38.125 146.219 L 38.125 144.729 37.502 145.590 C 34.043 150.364,26.020 148.358,25.481 142.584 C 25.034 137.797,27.492 135.669,34.583 134.705 L 38.021 134.237 37.961 133.529 C 37.701 130.416,33.217 130.221,27.656 133.079 C 27.570 133.124,27.500 132.070,27.500 130.739 L 27.500 128.319 28.385 127.942 C 28.872 127.735,29.927 127.414,30.729 127.228 C 31.531 127.043,32.375 126.846,32.604 126.792 C 32.833 126.737,34.256 126.712,35.766 126.737 L 38.510 126.782 40.133 127.610 M86.914 127.078 C 90.939 128.321,92.790 131.256,93.061 136.823 L 93.186 139.375 86.489 139.375 L 79.792 139.375 79.796 139.844 C 79.829 143.203,85.249 144.668,89.953 142.588 C 90.580 142.310,91.129 142.083,91.172 142.083 C 91.215 142.083,91.250 143.120,91.250 144.387 L 91.250 146.690 90.342 147.092 C 84.542 149.658,76.756 147.826,74.495 143.364 C 69.904 134.305,77.607 124.204,86.914 127.078 M141.368 127.237 C 142.208 127.674,143.506 128.947,143.942 129.760 C 144.154 130.157,144.232 130.114,145.238 129.051 C 148.378 125.731,154.153 125.775,156.405 129.136 C 157.693 131.059,157.767 131.607,157.866 140.052 L 157.956 147.708 154.603 147.708 L 151.250 147.708 151.250 140.931 C 151.250 135.678,151.186 134.000,150.966 133.473 C 149.913 130.953,146.607 131.021,145.327 133.590 L 144.792 134.665 144.792 141.187 L 144.792 147.708 141.458 147.708 L 138.125 147.708 138.125 140.899 C 138.125 132.364,137.893 131.667,135.051 131.667 C 132.129 131.667,131.786 132.625,131.711 140.990 L 131.650 147.708 128.325 147.708 L 125.000 147.708 125.000 137.396 L 125.000 127.083 128.333 127.083 L 131.667 127.083 131.667 128.542 L 131.667 130.001 132.430 129.156 C 134.540 126.821,138.810 125.905,141.368 127.237 M175.758 127.610 C 179.344 129.439,179.664 130.445,179.749 140.156 L 179.815 147.708 176.783 147.708 L 173.750 147.708 173.750 146.219 L 173.750 144.729 173.127 145.590 C 169.668 150.364,161.645 148.358,161.106 142.584 C 160.659 137.797,163.117 135.669,170.208 134.705 L 173.646 134.237 173.586 133.529 C 173.326 130.416,168.842 130.221,163.281 133.079 C 163.195 133.124,163.125 132.070,163.125 130.739 L 163.125 128.319 164.010 127.942 C 164.497 127.735,165.552 127.414,166.354 127.228 C 167.156 127.043,168.000 126.846,168.229 126.792 C 168.458 126.737,169.881 126.712,171.391 126.737 L 174.135 126.782 175.758 127.610 M219.414 127.078 C 223.439 128.321,225.290 131.256,225.561 136.823 L 225.686 139.375 218.989 139.375 L 212.292 139.375 212.296 139.844 C 212.329 143.203,217.749 144.668,222.453 142.588 C 223.080 142.310,223.629 142.083,223.672 142.083 C 223.715 142.083,223.750 143.120,223.750 144.387 L 223.750 146.690 222.842 147.092 C 217.042 149.658,209.256 147.826,206.995 143.364 C 202.404 134.305,210.107 124.204,219.414 127.078 M242.662 129.764 C 242.716 132.561,242.696 132.748,242.350 132.614 C 241.697 132.362,240.075 132.103,239.667 132.186 C 239.449 132.230,239.015 132.320,238.702 132.386 C 236.348 132.881,235.833 134.585,235.833 141.883 L 235.833 147.708 232.500 147.708 L 229.167 147.708 229.167 137.396 L 229.167 127.083 232.500 127.083 L 235.833 127.083 235.835 128.698 C 235.836 130.289,235.841 130.303,236.161 129.689 C 237.263 127.576,238.864 126.619,241.146 126.712 L 242.604 126.771 242.662 129.764 M82.292 131.264 C 81.215 131.717,80.090 133.278,79.713 134.844 L 79.575 135.417 83.342 135.417 L 87.109 135.417 86.972 134.427 C 86.607 131.803,84.461 130.352,82.292 131.264 M214.792 131.264 C 213.715 131.717,212.590 133.278,212.213 134.844 L 212.075 135.417 215.842 135.417 L 219.609 135.417 219.472 134.427 C 219.107 131.803,216.961 130.352,214.792 131.264 M58.021 131.983 C 54.430 133.916,54.403 141.555,57.982 142.904 C 61.251 144.136,63.828 141.527,63.835 136.979 C 63.840 132.888,60.951 130.405,58.021 131.983 M119.792 136.771 L 119.792 138.958 114.167 138.958 L 108.542 138.958 108.542 136.771 L 108.542 134.583 114.167 134.583 L 119.792 134.583 119.792 136.771 M35.066 138.431 C 31.400 139.000,30.002 141.818,32.711 143.177 C 35.204 144.427,37.762 142.655,38.059 139.473 L 38.185 138.125 37.478 138.146 C 37.089 138.157,36.004 138.285,35.066 138.431 M170.691 138.431 C 167.025 139.000,165.627 141.818,168.336 143.177 C 170.829 144.427,173.387 142.655,173.684 139.473 L 173.810 138.125 173.103 138.146 C 172.714 138.157,171.629 138.285,170.691 138.431 " stroke="none" fill="#542cd3" fill-rule="evenodd"></path>
		<path id="path1" d="M326.458 81.430 C 323.025 81.729,323.333 79.271,323.333 106.340 C 323.333 133.596,322.945 130.919,326.979 131.447 C 334.810 132.471,342.629 134.931,349.963 138.679 C 353.841 140.661,353.601 140.617,356.137 139.805 C 364.035 137.275,373.661 137.134,384.970 139.382 C 391.034 140.587,390.415 143.317,390.416 115.354 C 390.417 88.417,390.768 91.300,387.386 90.444 C 376.358 87.653,363.367 87.638,355.332 90.409 C 353.674 90.981,352.936 90.948,351.947 90.260 C 351.494 89.945,350.284 89.115,349.259 88.416 C 341.666 83.233,333.722 80.799,326.458 81.430 M114.024 87.491 C 112.735 88.040,112.820 90.067,114.155 90.620 C 116.021 91.393,117.730 89.436,116.508 87.927 C 116.094 87.416,114.753 87.180,114.024 87.491 M147.083 95.417 L 147.083 103.542 148.750 103.542 L 150.417 103.542 150.417 102.895 L 150.417 102.249 151.141 102.885 C 153.433 104.897,157.238 103.295,158.141 99.939 C 159.633 94.400,154.839 89.941,151.142 93.427 L 150.417 94.112 150.417 90.702 L 150.417 87.292 148.750 87.292 L 147.083 87.292 147.083 95.417 M187.292 95.417 L 187.292 103.542 188.958 103.542 L 190.625 103.542 190.625 100.797 L 190.625 98.053 192.210 100.537 C 194.300 103.813,193.969 103.569,196.218 103.498 L 198.133 103.438 196.150 100.673 C 193.766 97.351,193.778 97.998,196.048 94.992 L 197.930 92.500 195.935 92.500 L 193.941 92.500 192.283 95.052 L 190.625 97.604 190.625 92.448 L 190.625 87.292 188.958 87.292 L 187.292 87.292 187.292 95.417 M340.156 93.222 C 345.570 95.015,350.000 96.581,350.000 96.701 C 350.000 96.821,349.883 96.876,349.740 96.822 C 349.596 96.768,344.863 95.200,339.222 93.337 C 333.580 91.474,329.011 89.875,329.068 89.782 C 329.197 89.574,328.396 89.326,340.156 93.222 M61.969 92.568 C 59.358 93.574,58.210 95.513,58.374 98.639 C 58.563 102.242,60.739 103.991,64.665 103.694 C 67.193 103.502,67.708 103.179,67.708 101.781 C 67.708 101.145,67.673 100.625,67.630 100.625 C 67.586 100.625,67.214 100.766,66.803 100.938 C 64.679 101.825,61.667 100.920,61.667 99.396 C 61.667 98.969,61.749 98.958,65.208 98.958 L 68.750 98.958 68.750 97.801 C 68.750 93.762,65.460 91.223,61.969 92.568 M85.511 92.568 C 82.900 93.574,81.751 95.513,81.915 98.639 C 82.104 102.242,84.281 103.991,88.207 103.694 C 90.734 103.502,91.250 103.179,91.250 101.781 C 91.250 101.145,91.215 100.625,91.171 100.625 C 91.128 100.625,90.756 100.766,90.345 100.938 C 88.221 101.825,85.208 100.920,85.208 99.396 C 85.208 98.969,85.291 98.958,88.750 98.958 L 92.292 98.958 92.292 97.801 C 92.292 93.762,89.002 91.223,85.511 92.568 M99.583 92.439 C 99.099 92.618,98.519 93.169,98.096 93.854 L 97.710 94.479 97.709 93.490 L 97.708 92.500 96.042 92.500 L 94.375 92.500 94.375 98.021 L 94.375 103.542 96.042 103.542 L 97.708 103.542 97.708 100.525 C 97.708 96.118,98.327 94.980,100.556 95.285 L 101.458 95.409 101.458 93.850 L 101.458 92.292 100.677 92.308 C 100.247 92.317,99.755 92.376,99.583 92.439 M106.563 92.475 C 103.896 93.175,102.494 94.948,102.336 97.822 C 102.124 101.685,104.606 103.998,108.635 103.692 C 110.990 103.514,111.250 103.321,111.250 101.748 L 111.250 100.438 110.470 100.764 C 107.342 102.071,104.679 99.596,105.999 96.609 C 106.689 95.050,108.901 94.421,110.602 95.301 L 111.250 95.636 111.250 94.302 C 111.250 93.343,111.158 92.891,110.922 92.696 C 110.542 92.380,107.509 92.226,106.563 92.475 M121.428 92.605 C 117.529 93.860,117.969 97.580,122.214 99.251 C 123.645 99.814,123.854 99.961,123.854 100.411 C 123.854 101.509,121.942 101.776,119.948 100.956 L 118.750 100.463 118.750 101.799 C 118.750 103.484,118.995 103.619,122.083 103.630 C 127.801 103.652,129.384 98.864,124.289 96.958 C 120.328 95.476,121.975 93.889,126.198 95.120 C 126.898 95.324,126.916 93.065,126.217 92.691 C 125.489 92.301,122.536 92.249,121.428 92.605 M132.178 92.568 C 129.567 93.574,128.418 95.513,128.582 98.639 C 128.771 102.242,130.947 103.991,134.873 103.694 C 137.401 103.502,137.917 103.179,137.917 101.781 C 137.917 101.145,137.881 100.625,137.838 100.625 C 137.795 100.625,137.423 100.766,137.011 100.938 C 134.888 101.825,131.875 100.920,131.875 99.396 C 131.875 98.969,131.958 98.958,135.417 98.958 L 138.958 98.958 138.958 97.801 C 138.958 93.762,135.668 91.223,132.178 92.568 M163.641 92.667 C 158.510 94.441,158.763 102.295,163.991 103.550 C 167.337 104.352,170.725 102.725,171.470 99.957 C 172.851 94.829,168.664 90.930,163.641 92.667 M176.975 92.667 C 171.844 94.441,172.096 102.295,177.325 103.550 C 180.670 104.352,184.058 102.725,184.803 99.957 C 186.184 94.829,181.998 90.930,176.975 92.667 M69.792 92.595 C 69.792 92.648,70.440 93.718,71.233 94.973 C 72.025 96.228,72.776 97.445,72.901 97.678 C 73.096 98.043,72.880 98.465,71.355 100.698 C 70.381 102.125,69.583 103.353,69.583 103.425 C 69.583 103.498,70.442 103.530,71.491 103.497 L 73.399 103.438 74.356 101.619 C 75.516 99.413,75.326 99.409,76.456 101.670 L 77.391 103.542 79.326 103.542 L 81.261 103.542 80.951 102.969 C 80.781 102.654,79.990 101.367,79.194 100.109 L 77.745 97.822 79.498 95.256 C 80.461 93.844,81.250 92.643,81.250 92.586 C 81.250 92.530,80.439 92.511,79.448 92.544 L 77.645 92.604 76.615 94.534 L 75.586 96.463 74.630 94.481 L 73.674 92.500 71.733 92.500 C 70.665 92.500,69.792 92.543,69.792 92.595 M113.333 98.021 L 113.333 103.542 115.000 103.542 L 116.667 103.542 116.667 98.021 L 116.667 92.500 115.000 92.500 L 113.333 92.500 113.333 98.021 M64.884 95.052 C 65.177 95.310,65.476 95.826,65.547 96.198 L 65.677 96.875 63.649 96.875 L 61.621 96.875 61.756 96.302 C 62.097 94.845,63.853 94.144,64.884 95.052 M88.426 95.052 C 88.719 95.310,89.017 95.826,89.089 96.198 L 89.219 96.875 87.191 96.875 L 85.163 96.875 85.297 96.302 C 85.639 94.845,87.394 94.144,88.426 95.052 M135.093 95.052 C 135.386 95.310,135.684 95.826,135.755 96.198 L 135.885 96.875 133.858 96.875 L 131.830 96.875 131.964 96.302 C 132.305 94.845,134.061 94.144,135.093 95.052 M154.117 95.483 C 155.620 96.848,155.009 100.524,153.195 101.025 C 151.386 101.524,150.368 100.352,150.462 97.877 C 150.563 95.204,152.450 93.968,154.117 95.483 M167.373 95.393 C 168.244 96.138,168.561 97.819,168.124 99.390 C 167.503 101.628,164.371 101.748,163.606 99.564 C 162.537 96.514,165.214 93.549,167.373 95.393 M180.706 95.393 C 181.578 96.138,181.894 97.819,181.457 99.390 C 180.836 101.628,177.704 101.748,176.939 99.564 C 175.870 96.514,178.547 93.549,180.706 95.393 M339.673 98.610 C 345.530 100.554,349.906 102.114,349.960 102.276 C 350.012 102.431,349.972 102.510,349.871 102.451 C 349.770 102.392,345.094 100.827,339.479 98.973 C 330.254 95.927,328.236 95.191,329.177 95.217 C 329.343 95.221,334.066 96.748,339.673 98.610 M383.854 97.083 C 383.771 97.218,379.342 97.292,371.250 97.292 C 363.158 97.292,358.729 97.218,358.646 97.083 C 358.561 96.945,362.814 96.875,371.250 96.875 C 379.686 96.875,383.939 96.945,383.854 97.083 M339.734 104.191 C 350.247 107.664,350.148 107.629,349.948 107.829 C 349.828 107.950,329.802 101.401,329.181 101.037 C 328.166 100.443,330.521 101.147,339.734 104.191 M383.750 102.292 C 383.750 102.428,379.410 102.500,371.146 102.500 C 362.882 102.500,358.542 102.428,358.542 102.292 C 358.542 102.155,362.882 102.083,371.146 102.083 C 379.410 102.083,383.750 102.155,383.750 102.292 M339.948 109.818 C 345.477 111.650,350.000 113.247,350.000 113.367 C 350.000 113.488,349.883 113.542,349.740 113.488 C 349.596 113.433,344.866 111.861,339.228 109.994 C 333.589 108.126,329.029 106.513,329.093 106.410 C 329.156 106.306,329.363 106.282,329.552 106.355 C 329.741 106.428,334.419 107.987,339.948 109.818 M383.854 107.500 C 383.939 107.638,379.686 107.708,371.250 107.708 C 362.814 107.708,358.561 107.638,358.646 107.500 C 358.729 107.365,363.158 107.292,371.250 107.292 C 379.342 107.292,383.771 107.365,383.854 107.500 M383.854 112.708 C 383.939 112.846,379.686 112.917,371.250 112.917 C 362.814 112.917,358.561 112.846,358.646 112.708 C 358.729 112.573,363.158 112.500,371.250 112.500 C 379.342 112.500,383.771 112.573,383.854 112.708 M292.317 115.205 C 291.259 115.460,291.256 115.479,291.256 122.083 C 291.256 129.556,291.040 129.043,293.854 128.232 C 294.565 128.027,296.272 127.814,297.813 127.738 L 300.521 127.604 300.576 121.918 L 300.632 116.232 299.906 115.928 C 298.978 115.541,299.028 115.528,298.861 116.198 C 298.378 118.130,296.809 117.891,296.469 115.833 L 296.348 115.104 294.685 115.070 C 293.769 115.050,292.704 115.111,292.317 115.205 M15.417 132.500 L 15.417 147.708 18.542 147.708 L 21.667 147.708 21.667 132.500 L 21.667 117.292 18.542 117.292 L 15.417 117.292 15.417 132.500 M49.167 132.500 L 49.167 147.708 52.292 147.708 L 55.417 147.708 55.417 146.421 L 55.417 145.133 56.151 145.991 C 57.880 148.011,61.683 148.686,64.688 147.506 C 71.946 144.657,72.516 130.041,65.477 127.270 C 62.337 126.034,58.477 126.850,56.368 129.196 L 55.417 130.253 55.417 123.773 L 55.417 117.292 52.292 117.292 L 49.167 117.292 49.167 132.500 M96.875 132.500 L 96.875 147.708 100.000 147.708 L 103.125 147.708 103.125 132.500 L 103.125 117.292 100.000 117.292 L 96.875 117.292 96.875 132.500 M184.792 132.500 L 184.792 147.708 187.913 147.708 L 191.034 147.708 191.090 142.603 L 191.146 137.497 194.374 142.525 C 196.149 145.290,197.699 147.590,197.819 147.635 C 197.938 147.681,199.658 147.693,201.641 147.661 L 205.246 147.604 201.348 142.198 C 198.677 138.493,197.507 136.709,197.631 136.527 C 197.731 136.381,199.385 134.195,201.307 131.668 L 204.802 127.074 201.005 127.131 L 197.209 127.188 194.177 131.875 L 191.146 136.563 191.092 126.927 L 191.038 117.292 187.915 117.292 L 184.792 117.292 184.792 132.500 M383.854 117.917 C 383.939 118.055,379.686 118.125,371.250 118.125 C 362.814 118.125,358.561 118.055,358.646 117.917 C 358.729 117.782,363.158 117.708,371.250 117.708 C 379.342 117.708,383.771 117.782,383.854 117.917 M383.854 123.333 C 383.771 123.468,379.342 123.542,371.250 123.542 C 363.158 123.542,358.729 123.468,358.646 123.333 C 358.561 123.195,362.814 123.125,371.250 123.125 C 379.686 123.125,383.939 123.195,383.854 123.333 M33.021 126.815 C 31.816 126.982,29.864 127.479,28.687 127.919 L 27.500 128.363 27.500 130.722 L 27.500 133.081 28.906 132.382 C 33.531 130.085,38.125 130.791,38.125 133.799 C 38.125 134.298,38.063 134.315,34.679 134.774 C 27.387 135.763,24.957 137.974,25.639 142.997 C 26.353 148.259,33.315 150.021,37.088 145.893 L 38.125 144.758 38.125 146.233 L 38.125 147.708 41.146 147.708 L 44.167 147.708 44.165 141.198 C 44.163 134.180,44.018 132.633,43.189 130.782 C 41.776 127.631,37.943 126.136,33.021 126.815 M80.816 127.049 C 71.226 129.552,70.577 144.694,79.935 147.617 C 82.472 148.409,87.222 148.162,90.052 147.090 L 91.250 146.637 91.250 144.356 L 91.250 142.075 90.423 142.497 C 85.924 144.792,80.448 143.544,79.696 140.052 L 79.550 139.375 86.233 139.375 L 92.917 139.375 92.917 137.094 C 92.917 129.363,87.901 125.199,80.816 127.049 M136.146 126.959 C 134.681 127.423,133.628 128.075,132.529 129.197 L 131.458 130.291 131.458 128.687 L 131.458 127.083 128.333 127.083 L 125.208 127.083 125.208 137.396 L 125.208 147.708 128.320 147.708 L 131.432 147.708 131.497 141.094 C 131.575 133.165,131.921 132.056,134.461 131.580 C 137.731 130.966,138.333 132.505,138.333 141.469 L 138.333 147.708 141.458 147.708 L 144.583 147.708 144.583 141.600 C 144.583 133.673,145.066 132.045,147.549 131.585 C 150.846 130.974,151.446 132.483,151.453 141.406 L 151.458 147.708 154.595 147.708 L 157.731 147.708 157.659 139.844 C 157.580 131.131,157.519 130.682,156.193 128.915 C 153.752 125.665,147.378 126.046,144.807 129.596 L 144.225 130.399 143.548 129.354 C 142.100 127.119,138.903 126.084,136.146 126.959 M168.646 126.815 C 167.441 126.982,165.489 127.479,164.312 127.919 L 163.125 128.363 163.125 130.722 L 163.125 133.081 164.531 132.382 C 169.156 130.085,173.750 130.791,173.750 133.799 C 173.750 134.298,173.688 134.315,170.304 134.774 C 163.012 135.763,160.582 137.974,161.264 142.997 C 161.978 148.259,168.940 150.021,172.713 145.893 L 173.750 144.758 173.750 146.233 L 173.750 147.708 176.771 147.708 L 179.792 147.708 179.790 141.198 C 179.788 134.180,179.643 132.633,178.814 130.782 C 177.401 127.631,173.568 126.136,168.646 126.815 M213.316 127.049 C 203.726 129.552,203.077 144.694,212.435 147.617 C 214.972 148.409,219.722 148.162,222.552 147.090 L 223.750 146.637 223.750 144.356 L 223.750 142.075 222.923 142.497 C 218.424 144.792,212.948 143.544,212.196 140.052 L 212.050 139.375 218.733 139.375 L 225.417 139.375 225.417 137.094 C 225.417 129.363,220.401 125.199,213.316 127.049 M239.582 126.861 C 238.100 127.312,237.072 128.193,236.163 129.792 L 235.630 130.729 235.628 128.906 L 235.625 127.083 232.500 127.083 L 229.375 127.083 229.375 137.396 L 229.375 147.708 232.483 147.708 L 235.592 147.708 235.661 141.719 C 235.725 136.168,235.761 135.660,236.164 134.789 C 237.239 132.466,239.509 131.517,241.927 132.380 L 242.708 132.659 242.708 129.789 C 242.708 127.365,242.657 126.900,242.379 126.793 C 241.935 126.623,240.229 126.665,239.582 126.861 M85.299 131.362 C 86.147 131.764,86.856 133.003,87.017 134.367 L 87.141 135.417 83.362 135.417 C 79.053 135.417,79.195 135.494,80.095 133.646 C 81.277 131.220,83.211 130.371,85.299 131.362 M217.799 131.362 C 218.647 131.764,219.356 133.003,219.517 134.367 L 219.641 135.417 215.862 135.417 C 211.553 135.417,211.695 135.494,212.595 133.646 C 213.777 131.220,215.711 130.371,217.799 131.362 M60.933 131.691 C 65.854 133.057,64.599 143.156,59.501 143.214 C 56.593 143.247,55.521 141.707,55.521 137.500 C 55.521 132.882,57.515 130.742,60.933 131.691 M386.458 131.979 C 388.444 133.006,388.897 135.603,387.382 137.280 C 385.238 139.653,381.458 138.156,381.458 134.935 C 381.458 132.563,384.318 130.872,386.458 131.979 M291.919 133.599 C 291.367 134.187,291.346 134.542,291.807 135.508 C 292.137 136.201,292.135 136.277,291.755 136.991 C 291.226 137.984,291.079 138.048,290.927 137.352 C 290.309 134.531,288.089 132.985,287.996 135.313 C 287.982 135.656,287.946 136.481,287.916 137.145 C 287.850 138.611,288.283 139.198,289.664 139.514 L 290.569 139.721 291.150 138.497 C 291.470 137.823,292.135 136.863,292.628 136.363 C 293.669 135.307,293.899 134.640,293.506 133.817 C 293.145 133.062,292.506 132.974,291.919 133.599 M384.167 134.247 C 384.167 134.577,384.010 134.795,383.698 134.898 L 383.229 135.053 383.698 135.145 C 384.060 135.216,384.167 135.380,384.167 135.865 L 384.167 136.493 385.256 135.864 C 386.672 135.046,386.687 134.915,385.437 134.281 C 384.158 133.633,384.167 133.633,384.167 134.247 M108.750 136.771 L 108.750 138.958 114.167 138.958 L 119.583 138.958 119.583 136.771 L 119.583 134.583 114.167 134.583 L 108.750 134.583 108.750 136.771 M38.125 139.205 C 38.125 140.089,37.987 140.778,37.687 141.398 C 36.219 144.430,31.458 144.295,31.458 141.221 C 31.458 139.121,32.764 138.453,37.865 137.943 C 38.048 137.924,38.125 138.299,38.125 139.205 M173.750 139.205 C 173.750 140.089,173.612 140.778,173.312 141.398 C 171.844 144.430,167.083 144.295,167.083 141.221 C 167.083 139.121,168.389 138.453,173.490 137.943 C 173.673 137.924,173.750 138.299,173.750 139.205 M290.020 141.038 C 289.895 141.624,289.792 142.477,289.792 142.934 L 289.792 143.764 289.153 143.037 C 288.559 142.361,286.552 141.250,285.925 141.250 C 285.414 141.250,285.382 141.676,285.863 142.065 C 286.263 142.389,286.297 142.505,286.073 142.775 C 285.852 143.040,285.869 143.194,286.165 143.647 C 286.363 143.949,286.674 144.493,286.856 144.855 C 287.301 145.742,288.017 146.082,289.115 145.930 C 290.062 145.799,290.165 145.905,290.540 147.398 L 290.667 147.904 288.094 147.969 C 286.679 148.005,294.099 148.032,304.583 148.029 C 321.477 148.024,321.884 148.017,308.168 147.969 L 292.689 147.914 293.193 147.238 C 293.668 146.602,293.693 146.387,293.381 145.625 C 293.244 145.290,293.187 145.048,293.149 144.635 C 293.028 143.319,291.042 145.238,291.042 146.672 C 291.042 147.588,290.648 147.181,290.337 145.944 C 289.956 144.428,289.908 142.421,290.221 141.066 C 290.336 140.564,290.390 140.112,290.340 140.062 C 290.290 140.012,290.146 140.451,290.020 141.038 " stroke="none" fill="#f6f6f7" fill-rule="evenodd"></path>
		<path id="path2" d="M303.507 80.104 C 303.461 80.150,303.052 80.232,302.597 80.287 C 302.143 80.342,301.747 80.405,301.719 80.428 C 301.690 80.450,301.596 80.484,301.510 80.502 C 300.283 80.765,299.167 82.008,299.167 83.112 C 299.167 84.397,300.143 86.642,300.771 86.800 C 301.025 86.864,301.332 87.035,301.453 87.181 C 301.825 87.630,304.250 87.572,305.191 87.092 C 306.714 86.315,307.434 84.353,306.818 82.655 C 306.642 82.169,306.442 81.520,306.374 81.214 C 306.285 80.816,306.058 80.599,305.573 80.452 C 304.671 80.179,303.611 80.000,303.507 80.104 M322.773 80.210 C 321.537 80.708,321.568 80.363,321.504 94.220 L 321.446 106.895 320.903 106.469 C 320.605 106.234,320.208 106.042,320.022 106.042 C 319.836 106.042,318.903 105.519,317.949 104.880 C 316.995 104.242,315.235 103.200,314.037 102.566 L 311.858 101.413 311.024 101.991 C 309.309 103.180,309.657 103.464,316.515 106.465 C 317.635 106.954,318.880 107.665,319.281 108.044 C 319.683 108.423,320.337 108.794,320.735 108.869 L 321.458 109.005 321.461 119.659 C 321.464 133.657,321.204 132.648,324.919 133.089 C 332.601 134.001,341.122 136.719,351.097 141.439 L 353.340 142.500 372.083 142.500 L 390.827 142.500 391.507 141.892 L 392.188 141.284 392.243 116.215 C 392.284 97.617,392.236 90.995,392.057 90.563 C 391.617 89.497,391.038 89.371,386.833 89.418 L 383.021 89.461 387.026 89.574 C 390.840 89.682,391.054 89.710,391.505 90.162 L 391.979 90.637 392.034 115.636 C 392.093 142.981,392.151 141.622,390.914 142.092 C 390.594 142.214,383.179 142.292,371.927 142.292 L 353.464 142.292 350.534 140.916 C 340.717 136.306,331.708 133.515,324.280 132.785 C 323.172 132.676,322.720 132.530,322.356 132.167 L 321.881 131.692 321.880 106.488 L 321.879 81.284 322.518 80.746 C 323.299 80.089,323.262 80.089,325.313 80.726 C 326.229 81.011,327.120 81.238,327.292 81.232 C 327.464 81.225,326.760 80.947,325.729 80.614 C 323.711 79.962,323.470 79.929,322.773 80.210 M348.788 88.024 C 349.508 88.744,353.377 89.581,355.822 89.545 L 358.438 89.507 355.625 89.371 C 353.252 89.256,352.503 89.132,350.834 88.576 C 348.780 87.891,348.609 87.845,348.788 88.024 M337.708 92.724 C 342.464 94.317,346.429 95.597,346.520 95.568 C 346.712 95.506,329.563 89.783,329.263 89.809 C 329.153 89.818,332.953 91.130,337.708 92.724 M329.284 95.398 C 329.534 95.633,349.815 102.338,349.929 102.223 C 349.977 102.176,347.645 101.360,344.747 100.410 C 341.850 99.461,337.141 97.903,334.284 96.949 C 331.427 95.995,329.177 95.297,329.284 95.398 M346.875 95.684 C 347.045 95.865,349.437 96.667,349.784 96.660 C 349.960 96.656,349.589 96.479,348.958 96.266 C 347.340 95.720,346.755 95.556,346.875 95.684 M364.948 97.031 C 368.414 97.063,374.086 97.063,377.552 97.031 C 381.018 96.999,378.182 96.973,371.250 96.973 C 364.318 96.973,361.482 96.999,364.948 97.031 M329.190 100.918 C 329.352 101.090,339.812 104.589,340.100 104.567 C 340.217 104.558,337.969 103.761,335.104 102.795 C 328.951 100.720,329.027 100.744,329.190 100.918 M365.171 102.239 C 368.646 102.272,374.271 102.272,377.671 102.239 C 381.072 102.207,378.229 102.181,371.354 102.181 C 364.479 102.181,361.697 102.207,365.171 102.239 M297.656 104.110 L 296.875 104.192 296.873 108.398 C 296.873 110.711,296.773 113.214,296.652 113.958 C 296.336 115.904,296.808 117.500,297.700 117.500 C 298.075 117.500,298.750 116.590,298.750 116.083 C 298.750 115.613,298.804 115.589,299.531 115.722 C 300.674 115.932,300.636 115.703,300.576 121.993 L 300.521 127.813 300.059 127.878 C 299.580 127.946,299.527 128.106,299.291 130.208 C 299.162 131.359,299.482 136.659,299.900 140.313 C 300.361 144.329,300.412 144.583,300.770 144.583 C 301.022 144.583,301.059 144.744,300.949 145.365 C 300.873 145.794,300.793 146.474,300.770 146.875 L 300.729 147.604 303.594 147.662 L 306.458 147.720 306.458 147.203 C 306.458 146.768,306.334 146.664,305.677 146.552 C 304.889 146.417,302.708 145.106,302.708 144.766 C 302.708 144.666,302.977 144.583,303.305 144.583 L 303.902 144.583 304.031 142.031 C 304.102 140.628,304.307 135.823,304.485 131.354 C 304.663 126.885,304.875 122.540,304.957 121.698 L 305.104 120.166 306.607 124.415 L 308.110 128.664 307.799 129.697 C 307.418 130.958,307.076 137.876,307.266 140.479 C 307.403 142.358,307.162 144.091,306.683 144.668 C 306.543 144.837,306.458 145.236,306.495 145.555 C 306.577 146.258,311.625 147.323,312.110 146.739 C 312.470 146.305,312.195 145.933,311.320 145.671 C 309.398 145.095,308.188 142.645,309.734 142.460 C 310.935 142.317,312.350 131.072,312.252 122.444 L 312.188 116.771 311.579 115.569 C 311.244 114.907,310.848 114.265,310.699 114.142 C 310.449 113.934,304.372 114.131,300.062 114.486 C 298.325 114.630,298.303 114.568,298.769 110.938 C 298.975 109.333,299.209 107.107,299.289 105.990 L 299.435 103.958 298.936 103.993 C 298.662 104.013,298.086 104.065,297.656 104.110 M340.417 104.647 C 340.417 104.707,342.315 105.383,344.635 106.150 C 349.760 107.844,350.128 107.955,349.882 107.739 C 349.775 107.646,347.719 106.928,345.313 106.144 C 342.906 105.361,340.820 104.679,340.677 104.629 C 340.534 104.579,340.417 104.588,340.417 104.647 M336.846 109.093 C 341.127 110.521,344.666 111.653,344.711 111.608 C 344.805 111.515,329.545 106.449,329.255 106.477 C 329.149 106.488,332.565 107.665,336.846 109.093 M364.948 107.656 C 368.414 107.688,374.086 107.688,377.552 107.656 C 381.018 107.624,378.182 107.598,371.250 107.598 C 364.318 107.598,361.482 107.624,364.948 107.656 M345.007 111.743 C 345.164 111.901,349.590 113.336,349.870 113.320 C 349.999 113.313,349.167 112.990,348.021 112.602 C 345.744 111.832,344.837 111.573,345.007 111.743 M364.948 112.864 C 368.414 112.897,374.086 112.897,377.552 112.864 C 381.018 112.832,378.182 112.806,371.250 112.806 C 364.318 112.806,361.482 112.832,364.948 112.864 M364.948 118.073 C 368.414 118.105,374.086 118.105,377.552 118.073 C 381.018 118.041,378.182 118.014,371.250 118.014 C 364.318 118.014,361.482 118.041,364.948 118.073 M364.948 123.281 C 368.414 123.313,374.086 123.313,377.552 123.281 C 381.018 123.249,378.182 123.223,371.250 123.223 C 364.318 123.223,361.482 123.249,364.948 123.281 " stroke="none" fill="#473a51" fill-rule="evenodd"></path>
		<path id="path3" d="M301.666 88.928 C 301.047 89.933,298.877 91.667,298.238 91.667 C 297.427 91.667,296.344 96.748,296.145 101.489 C 296.031 104.195,295.974 104.114,297.932 104.000 L 299.583 103.905 299.583 104.433 C 299.583 105.163,299.020 110.381,298.727 112.358 C 298.564 113.464,298.554 114.054,298.699 114.199 C 298.907 114.407,308.050 114.107,309.844 113.833 C 311.008 113.655,310.987 112.353,309.792 110.649 L 308.958 109.461 308.962 106.449 L 308.966 103.438 309.743 102.795 C 310.171 102.442,310.919 101.891,311.406 101.570 C 312.215 101.037,312.685 100.000,312.118 100.000 C 312.023 100.000,311.941 99.742,311.937 99.427 C 311.928 98.688,308.908 91.967,308.286 91.301 C 308.026 91.022,307.416 90.560,306.930 90.275 C 306.435 89.983,305.847 89.399,305.590 88.940 C 305.162 88.179,305.069 88.125,304.180 88.122 C 303.657 88.121,303.023 88.064,302.772 87.997 C 302.392 87.895,302.204 88.053,301.666 88.928 M383.412 131.954 C 380.197 133.411,381.341 138.333,384.896 138.333 C 389.161 138.333,389.378 132.010,385.123 131.730 C 384.506 131.689,383.791 131.783,383.412 131.954 M386.354 135.041 C 386.354 135.190,385.862 135.576,385.260 135.899 L 384.167 136.485 384.167 135.931 C 384.167 135.553,384.035 135.343,383.750 135.269 C 383.521 135.209,383.333 135.077,383.333 134.976 C 383.333 134.874,383.521 134.792,383.750 134.792 C 384.077 134.792,384.167 134.653,384.167 134.149 L 384.167 133.507 385.260 134.139 C 385.862 134.486,386.354 134.892,386.354 135.041 " stroke="none" fill="#6c64fa" fill-rule="evenodd"></path>
		<path id="path4" d="M325.990 81.401 C 326.362 81.447,326.971 81.447,327.344 81.401 C 327.716 81.354,327.411 81.317,326.667 81.317 C 325.922 81.317,325.617 81.354,325.990 81.401 M330.573 81.397 C 330.831 81.447,331.253 81.447,331.510 81.397 C 331.768 81.347,331.557 81.307,331.042 81.307 C 330.526 81.307,330.315 81.347,330.573 81.397 M146.970 95.417 C 146.970 99.943,146.997 101.794,147.031 99.531 C 147.065 97.268,147.065 93.565,147.031 91.302 C 146.997 89.039,146.970 90.891,146.970 95.417 M187.178 95.417 C 187.178 99.943,187.206 101.794,187.239 99.531 C 187.273 97.268,187.273 93.565,187.239 91.302 C 187.206 89.039,187.178 90.891,187.178 95.417 M367.980 88.280 C 369.103 88.318,370.884 88.318,371.938 88.280 C 372.992 88.242,372.073 88.212,369.896 88.212 C 367.719 88.212,366.856 88.243,367.980 88.280 M362.344 88.685 C 362.544 88.738,362.872 88.738,363.073 88.685 C 363.273 88.633,363.109 88.590,362.708 88.590 C 362.307 88.590,362.143 88.633,362.344 88.685 M377.344 88.685 C 377.544 88.738,377.872 88.738,378.073 88.685 C 378.273 88.633,378.109 88.590,377.708 88.590 C 377.307 88.590,377.143 88.633,377.344 88.685 M94.258 98.021 C 94.258 101.115,94.287 102.409,94.322 100.898 C 94.358 99.386,94.358 96.855,94.322 95.273 C 94.287 93.691,94.258 94.927,94.258 98.021 M113.216 98.021 C 113.216 101.115,113.245 102.409,113.281 100.898 C 113.316 99.386,113.316 96.855,113.281 95.273 C 113.245 93.691,113.216 94.927,113.216 98.021 M390.517 115.313 C 390.517 127.917,390.542 133.042,390.573 126.703 C 390.603 120.363,390.603 110.051,390.573 103.786 C 390.542 97.521,390.517 102.708,390.517 115.313 M158.400 97.708 C 158.400 98.453,158.438 98.758,158.484 98.385 C 158.530 98.013,158.530 97.404,158.484 97.031 C 158.438 96.659,158.400 96.964,158.400 97.708 M358.678 97.135 C 358.731 97.221,364.389 97.292,371.250 97.292 C 378.111 97.292,383.769 97.221,383.822 97.135 C 383.875 97.049,378.218 96.979,371.250 96.979 C 364.282 96.979,358.625 97.049,358.678 97.135 M154.844 97.813 C 154.847 98.271,154.889 98.434,154.939 98.175 C 154.989 97.916,154.987 97.541,154.935 97.341 C 154.883 97.142,154.842 97.354,154.844 97.813 M163.393 98.021 C 163.394 98.594,163.435 98.803,163.483 98.487 C 163.531 98.170,163.529 97.701,163.480 97.445 C 163.431 97.189,163.391 97.448,163.393 98.021 M176.726 98.021 C 176.728 98.594,176.768 98.803,176.816 98.487 C 176.864 98.170,176.863 97.701,176.813 97.445 C 176.764 97.189,176.725 97.448,176.726 98.021 M58.182 98.125 C 58.182 98.641,58.222 98.852,58.272 98.594 C 58.322 98.336,58.322 97.914,58.272 97.656 C 58.222 97.398,58.182 97.609,58.182 98.125 M81.723 98.125 C 81.723 98.641,81.764 98.852,81.814 98.594 C 81.863 98.336,81.863 97.914,81.814 97.656 C 81.764 97.398,81.723 97.609,81.723 98.125 M105.678 98.021 C 105.680 98.479,105.723 98.642,105.772 98.383 C 105.822 98.124,105.820 97.749,105.768 97.550 C 105.716 97.350,105.675 97.563,105.678 98.021 M128.390 98.125 C 128.390 98.641,128.431 98.852,128.480 98.594 C 128.530 98.336,128.530 97.914,128.480 97.656 C 128.431 97.398,128.390 97.609,128.390 98.125 M159.848 98.125 C 159.848 98.641,159.889 98.852,159.939 98.594 C 159.988 98.336,159.988 97.914,159.939 97.656 C 159.889 97.398,159.848 97.609,159.848 98.125 M173.182 98.125 C 173.182 98.641,173.222 98.852,173.272 98.594 C 173.322 98.336,173.322 97.914,173.272 97.656 C 173.222 97.398,173.182 97.609,173.182 98.125 M102.140 98.333 C 102.140 98.849,102.181 99.060,102.230 98.802 C 102.280 98.544,102.280 98.122,102.230 97.865 C 102.181 97.607,102.140 97.818,102.140 98.333 M67.604 101.751 C 67.604 102.485,67.674 103.042,67.760 102.989 C 67.846 102.936,67.917 102.335,67.917 101.654 C 67.917 100.974,67.846 100.417,67.760 100.417 C 67.674 100.417,67.604 101.017,67.604 101.751 M91.146 101.751 C 91.146 102.485,91.216 103.042,91.302 102.989 C 91.388 102.936,91.458 102.335,91.458 101.654 C 91.458 100.974,91.388 100.417,91.302 100.417 C 91.216 100.417,91.146 101.017,91.146 101.751 M137.813 101.751 C 137.813 102.485,137.883 103.042,137.969 102.989 C 138.055 102.936,138.125 102.335,138.125 101.654 C 138.125 100.974,138.055 100.417,137.969 100.417 C 137.883 100.417,137.813 101.017,137.813 101.751 M310.409 102.307 L 309.688 102.947 310.469 102.386 C 311.159 101.891,311.384 101.667,311.190 101.667 C 311.157 101.667,310.806 101.955,310.409 102.307 M358.542 102.344 C 358.542 102.430,364.237 102.479,371.198 102.453 C 378.159 102.428,382.307 102.381,380.417 102.350 C 371.718 102.207,358.542 102.203,358.542 102.344 M297.242 104.106 C 297.501 104.156,297.876 104.154,298.075 104.101 C 298.275 104.049,298.063 104.009,297.604 104.011 C 297.146 104.013,296.983 104.056,297.242 104.106 M299.435 104.896 C 299.436 105.469,299.477 105.678,299.524 105.362 C 299.572 105.045,299.571 104.576,299.522 104.320 C 299.472 104.064,299.433 104.323,299.435 104.896 M299.215 107.083 C 299.215 107.484,299.258 107.648,299.310 107.448 C 299.363 107.247,299.363 106.919,299.310 106.719 C 299.258 106.518,299.215 106.682,299.215 107.083 M358.678 107.448 C 358.625 107.534,364.282 107.604,371.250 107.604 C 378.218 107.604,383.875 107.534,383.822 107.448 C 383.769 107.362,378.111 107.292,371.250 107.292 C 364.389 107.292,358.731 107.362,358.678 107.448 M299.007 109.167 C 299.007 109.568,299.050 109.732,299.102 109.531 C 299.154 109.331,299.154 109.003,299.102 108.802 C 299.050 108.602,299.007 108.766,299.007 109.167 M296.745 110.938 C 296.745 112.198,296.779 112.687,296.821 112.024 C 296.862 111.361,296.862 110.329,296.820 109.732 C 296.778 109.135,296.744 109.677,296.745 110.938 M298.803 110.938 C 298.805 111.396,298.848 111.559,298.897 111.300 C 298.947 111.041,298.945 110.666,298.893 110.466 C 298.841 110.267,298.800 110.479,298.803 110.938 M358.678 112.656 C 358.625 112.742,364.282 112.813,371.250 112.813 C 378.218 112.813,383.875 112.742,383.822 112.656 C 383.769 112.570,378.111 112.500,371.250 112.500 C 364.389 112.500,358.731 112.570,358.678 112.656 M294.327 114.943 C 294.701 114.989,295.264 114.988,295.577 114.941 C 295.890 114.893,295.583 114.855,294.896 114.856 C 294.208 114.857,293.952 114.896,294.327 114.943 M15.307 132.500 C 15.307 140.922,15.333 144.367,15.365 140.156 C 15.396 135.945,15.396 129.055,15.365 124.844 C 15.333 120.633,15.307 124.078,15.307 132.500 M21.766 132.500 C 21.766 140.922,21.791 144.367,21.823 140.156 C 21.854 135.945,21.854 129.055,21.823 124.844 C 21.791 120.633,21.766 124.078,21.766 132.500 M49.057 132.500 C 49.057 140.922,49.083 144.367,49.115 140.156 C 49.146 135.945,49.146 129.055,49.115 124.844 C 49.083 120.633,49.057 124.078,49.057 132.500 M55.417 123.750 C 55.417 127.340,55.469 130.226,55.533 130.162 C 55.673 130.022,55.655 117.461,55.515 117.321 C 55.461 117.267,55.417 120.160,55.417 123.750 M96.766 132.500 C 96.766 140.922,96.791 144.367,96.823 140.156 C 96.854 135.945,96.854 129.055,96.823 124.844 C 96.791 120.633,96.766 124.078,96.766 132.500 M103.224 132.500 C 103.224 140.922,103.250 144.367,103.281 140.156 C 103.313 135.945,103.313 129.055,103.281 124.844 C 103.250 120.633,103.224 124.078,103.224 132.500 M184.682 132.500 C 184.682 140.922,184.708 144.367,184.740 140.156 C 184.771 135.945,184.771 129.055,184.740 124.844 C 184.708 120.633,184.682 124.078,184.682 132.500 M191.042 126.875 C 191.042 132.184,191.092 136.477,191.154 136.415 C 191.293 136.277,191.281 117.461,191.142 117.322 C 191.087 117.267,191.042 121.566,191.042 126.875 M358.678 117.865 C 358.625 117.951,364.282 118.021,371.250 118.021 C 378.218 118.021,383.875 117.951,383.822 117.865 C 383.769 117.779,378.111 117.708,371.250 117.708 C 364.389 117.708,358.731 117.779,358.678 117.865 M358.678 123.385 C 358.731 123.471,364.389 123.542,371.250 123.542 C 378.111 123.542,383.769 123.471,383.822 123.385 C 383.875 123.299,378.218 123.229,371.250 123.229 C 364.282 123.229,358.625 123.299,358.678 123.385 M125.097 137.396 C 125.097 143.125,125.123 145.439,125.156 142.538 C 125.189 139.636,125.189 134.949,125.156 132.121 C 125.123 129.293,125.097 131.667,125.097 137.396 M131.530 128.646 C 131.531 129.563,131.567 129.912,131.611 129.422 C 131.655 128.932,131.655 128.182,131.610 127.755 C 131.565 127.328,131.529 127.729,131.530 128.646 M229.263 137.396 C 229.263 143.125,229.290 145.439,229.323 142.538 C 229.355 139.636,229.355 134.949,229.323 132.121 C 229.290 129.293,229.263 131.667,229.263 137.396 M235.699 128.854 C 235.698 129.885,235.734 130.334,235.777 129.850 C 235.821 129.367,235.821 128.523,235.778 127.975 C 235.735 127.427,235.700 127.823,235.699 128.854 M299.688 127.708 L 298.854 127.858 299.623 127.887 C 300.046 127.903,300.450 127.823,300.521 127.708 C 300.592 127.594,300.621 127.513,300.585 127.530 C 300.550 127.546,300.146 127.626,299.688 127.708 M59.427 131.602 C 59.628 131.654,59.956 131.654,60.156 131.602 C 60.357 131.550,60.193 131.507,59.792 131.507 C 59.391 131.507,59.227 131.550,59.427 131.602 M157.802 140.833 C 157.802 144.672,157.830 146.242,157.864 144.323 C 157.899 142.404,157.899 139.263,157.864 137.344 C 157.830 135.424,157.802 136.995,157.802 140.833 M108.620 136.771 C 108.620 138.031,108.654 138.520,108.696 137.857 C 108.737 137.194,108.737 136.163,108.695 135.565 C 108.653 134.968,108.619 135.510,108.620 136.771 M119.661 136.771 C 119.662 138.031,119.696 138.520,119.738 137.857 C 119.779 137.194,119.779 136.163,119.737 135.565 C 119.695 134.968,119.661 135.510,119.661 136.771 M138.218 141.250 C 138.218 144.859,138.246 146.336,138.281 144.531 C 138.316 142.727,138.316 139.773,138.281 137.969 C 138.246 136.164,138.218 137.641,138.218 141.250 M151.343 141.250 C 151.343 144.859,151.371 146.336,151.406 144.531 C 151.441 142.727,151.441 139.773,151.406 137.969 C 151.371 136.164,151.343 137.641,151.343 141.250 M131.551 141.458 C 131.551 144.953,131.579 146.383,131.614 144.635 C 131.649 142.888,131.649 140.029,131.614 138.281 C 131.579 136.534,131.551 137.964,131.551 141.458 M144.676 141.458 C 144.676 144.953,144.704 146.383,144.739 144.635 C 144.774 142.888,144.774 140.029,144.739 138.281 C 144.704 136.534,144.676 137.964,144.676 141.458 M92.993 137.396 C 92.993 138.542,93.028 138.984,93.071 138.378 C 93.113 137.773,93.112 136.836,93.070 136.295 C 93.027 135.755,92.992 136.250,92.993 137.396 M225.493 137.396 C 225.493 138.542,225.528 138.984,225.571 138.378 C 225.613 137.773,225.612 136.836,225.570 136.295 C 225.527 135.755,225.492 136.250,225.493 137.396 M287.791 135.918 C 287.730 136.079,287.712 136.524,287.752 136.907 C 287.816 137.518,287.837 137.482,287.924 136.615 C 288.026 135.600,287.989 135.403,287.791 135.918 M70.476 136.771 C 70.478 137.344,70.518 137.553,70.566 137.237 C 70.614 136.920,70.613 136.451,70.563 136.195 C 70.514 135.939,70.475 136.198,70.476 136.771 M235.716 142.188 C 235.716 145.281,235.745 146.576,235.781 145.065 C 235.816 143.553,235.816 141.022,235.781 139.440 C 235.745 137.857,235.716 139.094,235.716 142.188 M291.250 137.500 C 291.119 137.744,291.147 137.847,291.346 137.847 C 291.510 137.847,291.577 137.717,291.507 137.535 C 291.433 137.341,291.474 137.277,291.617 137.365 C 291.743 137.443,291.895 137.427,291.956 137.330 C 292.016 137.232,291.923 137.153,291.750 137.153 C 291.577 137.153,291.352 137.309,291.250 137.500 M191.132 142.604 C 191.132 145.469,191.161 146.670,191.197 145.273 C 191.233 143.876,191.233 141.532,191.197 140.064 C 191.162 138.597,191.132 139.740,191.132 142.604 M368.906 137.863 C 369.737 137.903,371.096 137.903,371.927 137.863 C 372.758 137.823,372.078 137.791,370.417 137.791 C 368.755 137.791,368.076 137.823,368.906 137.863 M349.792 138.635 C 349.792 138.692,350.073 138.885,350.417 139.063 C 350.760 139.240,351.042 139.339,351.042 139.282 C 351.042 139.224,350.760 139.032,350.417 138.854 C 350.073 138.676,349.792 138.578,349.792 138.635 M289.940 142.710 C 290.056 145.125,290.158 145.447,290.170 143.438 C 290.175 142.521,290.106 141.584,290.017 141.355 C 289.928 141.127,289.893 141.736,289.940 142.710 M285.818 142.135 C 286.045 142.437,286.045 142.563,285.818 142.865 C 285.557 143.212,285.563 143.212,285.941 142.865 C 286.333 142.506,286.333 142.494,285.941 142.135 C 285.563 141.788,285.557 141.788,285.818 142.135 M288.958 142.811 C 289.359 143.267,289.711 143.681,289.740 143.730 C 289.768 143.779,289.784 143.546,289.775 143.212 C 289.766 142.878,289.709 142.729,289.648 142.882 C 289.568 143.083,289.359 142.998,288.883 142.569 C 288.264 142.012,288.268 142.025,288.958 142.811 M59.010 143.269 C 59.211 143.321,59.539 143.321,59.740 143.269 C 59.940 143.216,59.776 143.173,59.375 143.173 C 58.974 143.173,58.810 143.216,59.010 143.269 M75.417 144.857 C 75.417 144.893,75.721 145.197,76.094 145.534 L 76.771 146.146 76.159 145.469 C 75.589 144.838,75.417 144.696,75.417 144.857 M207.917 144.857 C 207.917 144.893,208.221 145.197,208.594 145.534 L 209.271 146.146 208.659 145.469 C 208.089 144.838,207.917 144.696,207.917 144.857 M293.125 145.150 C 293.125 145.283,293.219 145.450,293.333 145.521 C 293.448 145.592,293.553 145.855,293.566 146.106 C 293.584 146.453,293.613 146.476,293.685 146.202 C 293.737 146.003,293.632 145.631,293.452 145.374 C 293.272 145.117,293.125 145.016,293.125 145.150 M55.417 146.458 C 55.417 147.184,55.455 147.739,55.503 147.691 C 55.658 147.535,55.708 145.430,55.560 145.283 C 55.481 145.204,55.417 145.733,55.417 146.458 M36.758 146.302 L 36.146 146.979 36.823 146.367 C 37.454 145.797,37.596 145.625,37.435 145.625 C 37.399 145.625,37.094 145.930,36.758 146.302 M172.383 146.302 L 171.771 146.979 172.448 146.367 C 172.820 146.031,173.125 145.726,173.125 145.690 C 173.125 145.529,172.953 145.671,172.383 146.302 M290.659 146.964 L 290.390 147.708 287.903 147.708 C 286.536 147.708,285.416 147.779,285.416 147.865 C 285.416 147.951,286.567 147.992,287.975 147.958 L 290.533 147.894 290.805 147.281 C 290.954 146.943,291.043 146.566,291.002 146.444 C 290.961 146.321,290.807 146.555,290.659 146.964 M292.919 147.602 C 292.692 147.875,294.475 147.918,308.206 147.966 C 316.755 147.996,323.750 147.951,323.750 147.865 C 323.750 147.779,316.854 147.708,308.425 147.708 C 298.262 147.708,293.144 147.638,293.229 147.500 C 293.426 147.181,293.209 147.252,292.919 147.602 " stroke="none" fill="#8d83d4" fill-rule="evenodd"></path>
	</g>
</svg>