<?xml version="1.0" encoding="UTF-8" standalone="no"?>
<svg id="svg" version="1.1" xmlns="http://www.w3.org/2000/svg" xmlns:xlink="http://www.w3.org/1999/xlink" width="400" height="400" viewBox="0, 0, 400,400">
	<g id="svgg">
		<path id="path0" d="M166.748 119.653 C 164.698 120.057,163.011 121.276,162.366 122.821 C 161.935 123.851,161.852 133.342,161.852 181.415 L 161.852 238.779 162.686 240.018 C 163.992 241.955,165.359 242.524,170.208 243.149 C 191.295 245.867,212.593 252.775,230.926 262.843 C 236.283 265.785,236.516 265.816,241.508 264.251 C 263.386 257.391,288.141 257.098,316.728 263.360 C 322.564 264.638,323.943 264.518,325.897 262.564 C 327.847 260.615,327.796 262.317,327.691 202.531 L 327.593 146.481 326.724 145.084 C 325.614 143.299,324.583 142.784,319.914 141.685 C 290.023 134.645,262.806 134.584,241.289 141.508 C 236.499 143.049,234.861 143.035,232.630 141.434 C 214.050 128.095,199.271 121.609,182.973 119.639 C 179.292 119.194,169.032 119.203,166.748 119.653 M207.870 150.208 C 221.192 154.651,227.778 157.014,227.778 157.352 C 227.778 157.642,227.548 157.769,227.239 157.650 C 226.942 157.536,215.234 153.658,201.220 149.032 C 173.149 139.764,175.398 140.555,175.702 140.062 C 175.959 139.646,180.334 141.026,207.870 150.208 M220.093 167.982 C 225.126 169.659,227.778 170.718,227.778 171.051 C 227.778 171.343,227.549 171.473,227.244 171.356 C 226.950 171.243,215.242 167.372,201.225 162.754 C 187.209 158.136,175.682 154.305,175.611 154.241 C 174.090 152.865,182.681 155.518,220.093 167.982 M311.389 158.056 C 311.512 158.423,305.113 158.519,280.216 158.519 C 262.986 158.519,248.889 158.380,248.889 158.210 C 248.889 158.040,249.001 157.789,249.138 157.652 C 249.637 157.153,311.221 157.552,311.389 158.056 M227.778 184.749 C 227.778 185.033,227.569 185.188,227.315 185.095 C 227.060 185.002,215.352 181.134,201.296 176.500 C 173.824 167.441,175.381 167.990,175.697 167.479 C 176.023 166.951,227.778 184.113,227.778 184.749 M311.389 171.019 C 311.512 171.386,305.113 171.481,280.216 171.481 C 262.986 171.481,248.889 171.343,248.889 171.173 C 248.889 171.003,249.001 170.752,249.138 170.615 C 249.637 170.116,311.221 170.515,311.389 171.019 M227.773 198.426 C 227.780 199.094,229.417 199.599,201.511 190.323 C 173.519 181.018,175.389 181.680,175.697 181.182 C 175.998 180.695,227.767 197.837,227.773 198.426 M311.389 183.981 C 311.512 184.349,305.113 184.444,280.216 184.444 C 262.986 184.444,248.889 184.306,248.889 184.136 C 248.889 183.966,249.001 183.715,249.138 183.578 C 249.637 183.079,311.221 183.478,311.389 183.981 M311.389 196.944 C 311.512 197.312,305.113 197.407,280.216 197.407 C 262.986 197.407,248.889 197.269,248.889 197.099 C 248.889 196.929,249.001 196.678,249.138 196.541 C 249.637 196.042,311.221 196.441,311.389 196.944 M84.905 202.942 C 82.149 203.391,82.247 202.762,82.234 220.066 C 82.220 238.708,81.820 237.436,87.154 235.733 C 91.461 234.357,96.632 233.629,101.111 233.768 L 105.000 233.889 105.097 219.573 L 105.194 205.258 103.457 204.666 C 101.234 203.909,101.111 203.918,101.111 204.851 C 101.111 210.220,95.793 209.786,94.990 204.352 L 94.731 202.593 90.606 202.639 C 88.338 202.664,85.772 202.801,84.905 202.942 M311.481 210.000 C 311.481 210.244,300.802 210.370,280.185 210.370 C 259.568 210.370,248.889 210.244,248.889 210.000 C 248.889 209.756,259.568 209.630,280.185 209.630 C 300.802 209.630,311.481 209.756,311.481 210.000 M311.481 222.963 C 311.481 223.207,300.802 223.333,280.185 223.333 C 259.568 223.333,248.889 223.207,248.889 222.963 C 248.889 222.719,259.568 222.593,280.185 222.593 C 300.802 222.593,311.481 222.719,311.481 222.963 M318.456 244.915 C 325.463 249.552,322.261 260.423,313.889 260.423 C 304.775 260.423,302.067 247.995,310.370 244.275 C 312.483 243.328,316.545 243.650,318.456 244.915 M83.981 248.514 C 82.519 250.068,82.261 251.200,83.090 252.418 C 84.125 253.937,84.491 255.631,83.920 256.265 C 83.629 256.588,82.986 257.568,82.490 258.443 L 81.589 260.033 81.375 257.963 C 80.834 252.720,76.491 248.275,74.288 250.709 C 73.692 251.367,73.689 251.486,74.245 252.334 C 74.745 253.097,74.763 253.334,74.352 253.755 C 73.624 254.500,73.565 259.398,74.268 260.757 C 74.921 262.021,76.349 262.844,78.480 263.185 C 80.221 263.463,80.166 263.315,79.430 265.741 C 79.121 266.759,78.764 269.065,78.636 270.864 C 78.423 273.864,78.366 274.048,77.950 273.086 C 76.647 270.065,68.275 265.991,67.860 268.175 C 67.797 268.506,68.154 268.941,68.689 269.185 C 69.711 269.651,69.872 270.363,69.200 271.439 C 68.848 272.002,68.932 272.352,69.663 273.366 C 70.154 274.048,70.806 275.261,71.111 276.061 C 72.110 278.677,74.447 279.614,77.990 278.819 C 79.124 278.564,79.131 278.573,79.956 281.134 L 80.783 283.704 83.328 283.704 C 86.969 283.704,89.807 279.986,87.579 278.137 C 87.266 277.877,87.035 277.398,87.066 277.073 C 87.236 275.292,86.118 274.492,84.436 275.188 C 83.207 275.698,81.502 279.454,81.451 281.763 L 81.421 283.148 80.885 281.920 C 77.366 273.863,79.671 260.663,85.493 255.528 C 88.546 252.835,89.111 250.215,87.104 248.056 C 85.870 246.727,85.630 246.762,83.981 248.514 M312.090 248.774 C 311.959 248.905,311.852 249.556,311.852 250.221 C 311.852 251.193,311.688 251.453,311.019 251.548 C 310.560 251.613,310.185 251.833,310.185 252.037 C 310.185 252.241,310.560 252.461,311.019 252.526 C 311.695 252.622,311.852 252.880,311.852 253.893 C 311.852 255.696,312.123 255.689,315.372 253.806 L 318.303 252.107 317.424 251.517 C 315.318 250.102,312.309 248.555,312.090 248.774 M98.519 306.296 L 98.519 320.000 101.481 320.000 L 104.444 320.000 104.444 306.296 L 104.444 292.593 101.481 292.593 L 98.519 292.593 98.519 306.296 M128.889 306.296 L 128.889 320.000 131.852 320.000 C 134.781 320.000,134.815 319.989,134.815 319.055 L 134.815 318.110 136.113 319.101 C 142.052 323.630,149.369 316.939,148.138 308.105 C 147.246 301.707,140.719 298.827,136.253 302.861 L 134.815 304.160 134.815 298.376 L 134.815 292.593 131.852 292.593 L 128.889 292.593 128.889 306.296 M171.852 306.296 L 171.852 320.000 174.815 320.000 L 177.778 320.000 177.778 306.296 L 177.778 292.593 174.815 292.593 L 171.852 292.593 171.852 306.296 M251.111 306.296 L 251.111 320.000 254.063 320.000 L 257.014 320.000 257.118 315.492 L 257.222 310.984 260.040 315.400 L 262.859 319.815 266.244 319.921 C 268.106 319.980,269.630 319.947,269.630 319.848 C 269.630 319.748,268.130 317.594,266.296 315.060 C 264.463 312.526,262.963 310.328,262.963 310.175 C 262.963 309.947,264.589 307.729,268.997 301.944 C 269.273 301.582,268.614 301.481,265.961 301.481 L 262.573 301.481 259.898 305.639 L 257.222 309.796 257.123 301.194 L 257.023 292.593 254.067 292.593 L 251.111 292.593 251.111 306.296 M112.037 301.789 L 109.815 302.409 109.706 304.681 L 109.596 306.953 111.342 306.069 C 114.723 304.358,118.889 305.029,118.889 307.284 C 118.889 307.945,118.511 308.075,115.537 308.442 C 109.706 309.160,107.602 311.035,107.873 315.273 C 108.190 320.209,114.119 322.189,117.870 318.611 L 118.889 317.639 118.889 318.820 L 118.889 320.000 121.667 320.000 L 124.444 320.000 124.442 313.611 C 124.441 310.097,124.257 306.563,124.034 305.758 C 122.912 301.717,118.060 300.112,112.037 301.789 M156.797 301.714 C 151.797 303.487,149.430 310.445,152.024 315.746 C 154.023 319.833,159.047 321.403,164.883 319.766 L 167.037 319.162 167.037 316.979 L 167.037 314.796 165.884 315.392 C 163.125 316.819,158.863 316.396,157.413 314.553 C 155.936 312.675,156.152 312.593,162.593 312.593 L 168.519 312.593 168.510 309.907 C 168.490 303.203,163.145 299.464,156.797 301.714 M206.296 301.702 C 205.583 302.010,204.542 302.702,203.981 303.238 L 202.963 304.213 202.963 302.847 L 202.963 301.481 200.000 301.481 L 197.037 301.481 197.037 310.741 L 197.037 320.000 199.976 320.000 L 202.914 320.000 203.031 313.732 C 203.164 306.593,203.562 305.556,206.161 305.556 C 208.628 305.556,208.889 306.323,208.889 313.588 L 208.889 320.000 211.827 320.000 L 214.766 320.000 214.883 313.732 C 215.016 306.630,215.420 305.556,217.963 305.556 C 220.436 305.556,220.741 306.441,220.741 313.635 L 220.741 320.000 223.732 320.000 L 226.722 320.000 226.602 312.685 C 226.470 304.700,226.247 303.785,224.024 302.128 C 221.792 300.464,217.554 301.055,215.370 303.334 L 214.318 304.432 213.684 303.390 C 212.422 301.314,208.997 300.532,206.296 301.702 M234.259 301.789 L 232.037 302.409 231.928 304.681 L 231.819 306.953 233.565 306.069 C 236.945 304.358,241.111 305.029,241.111 307.284 C 241.111 307.945,240.733 308.075,237.759 308.442 C 231.928 309.160,229.824 311.035,230.096 315.273 C 230.412 320.209,236.342 322.189,240.093 318.611 L 241.111 317.639 241.111 318.820 L 241.111 320.000 243.889 320.000 L 246.667 320.000 246.665 313.611 C 246.663 310.097,246.480 306.563,246.256 305.758 C 245.134 301.717,240.282 300.112,234.259 301.789 M276.057 301.714 C 271.056 303.487,268.689 310.445,271.283 315.746 C 273.282 319.833,278.307 321.403,284.142 319.766 L 286.296 319.162 286.296 316.979 L 286.296 314.796 285.144 315.392 C 282.385 316.819,278.123 316.396,276.672 314.553 C 275.195 312.675,275.411 312.593,281.852 312.593 L 287.778 312.593 287.770 309.907 C 287.749 303.203,282.404 299.464,276.057 301.714 M299.373 301.835 C 298.723 302.231,297.938 303.022,297.629 303.593 L 297.067 304.630 297.052 303.056 L 297.037 301.481 294.074 301.481 L 291.111 301.481 291.111 310.741 L 291.111 320.000 294.074 320.000 L 297.037 320.000 297.038 314.722 C 297.038 307.431,298.023 305.630,301.759 306.089 L 303.333 306.282 303.333 303.697 L 303.333 301.111 301.944 301.112 C 301.181 301.113,300.024 301.438,299.373 301.835 M162.601 306.206 C 164.269 308.326,163.723 308.889,160.000 308.889 C 156.268 308.889,156.096 308.734,157.504 306.645 C 158.828 304.681,161.238 304.473,162.601 306.206 M281.860 306.206 C 283.528 308.326,282.982 308.889,279.259 308.889 C 275.528 308.889,275.355 308.734,276.763 306.645 C 278.087 304.681,280.497 304.473,281.860 306.206 M140.925 306.389 C 143.249 308.394,142.743 314.096,140.117 315.495 C 137.138 317.082,134.815 315.076,134.815 310.917 C 134.815 306.376,138.093 303.946,140.925 306.389 M182.593 310.185 L 182.593 312.222 187.593 312.222 L 192.593 312.222 192.593 310.185 L 192.593 308.148 187.593 308.148 L 182.593 308.148 182.593 310.185 M119.058 312.870 C 118.583 315.677,115.414 317.266,113.704 315.556 C 111.722 313.574,113.681 311.594,117.702 311.513 L 119.293 311.481 119.058 312.870 M241.280 312.870 C 240.806 315.677,237.636 317.266,235.926 315.556 C 233.944 313.574,235.903 311.594,239.924 311.513 L 241.515 311.481 241.280 312.870 " stroke="none" fill="#f3f3f4" fill-rule="evenodd"></path>
		<path id="path1" d="M0.000 200.000 L 0.000 400.000 200.000 400.000 L 400.000 400.000 400.000 200.000 L 400.000 0.000 200.000 0.000 L 0.000 0.000 0.000 200.000 M167.453 117.368 C 171.478 118.635,172.647 118.840,177.037 119.051 C 191.827 119.762,207.296 124.765,220.493 133.105 C 223.100 134.753,224.949 135.549,229.609 137.031 L 235.455 138.889 243.006 138.880 C 247.158 138.875,251.306 138.696,252.222 138.483 C 263.589 135.836,284.649 135.562,299.815 137.862 C 303.897 138.481,307.482 138.694,316.667 138.861 C 329.726 139.099,330.104 139.175,331.532 141.846 C 332.526 143.705,332.620 264.917,331.629 267.393 C 330.330 270.639,334.816 270.370,281.958 270.370 L 235.299 270.370 229.441 267.562 C 204.813 255.754,183.406 249.169,162.067 246.837 C 156.902 246.273,157.042 247.172,157.039 214.537 L 157.037 187.407 155.607 187.407 C 154.084 187.407,151.892 186.187,150.556 184.594 C 150.119 184.074,147.230 182.591,143.519 180.982 C 134.929 177.258,129.854 174.661,128.968 173.535 C 128.070 172.393,127.870 172.377,126.819 173.364 C 126.010 174.124,126.000 174.251,126.187 181.605 L 126.377 189.074 128.207 191.902 C 129.974 194.631,130.034 194.812,129.926 197.087 L 129.815 199.444 128.333 199.687 L 126.852 199.930 128.519 199.879 C 130.385 199.823,131.574 201.289,133.417 205.918 C 136.024 212.465,134.085 245.883,129.829 267.778 C 129.532 269.306,129.282 270.608,129.274 270.672 C 129.266 270.736,128.728 270.736,128.078 270.672 C 126.980 270.564,126.865 270.664,126.448 272.084 L 125.999 273.613 128.277 275.858 C 130.024 277.580,130.960 278.204,132.290 278.534 C 134.188 279.005,134.505 279.389,134.037 280.648 C 133.639 281.720,133.131 281.712,126.175 280.535 C 119.258 279.364,118.742 278.856,120.746 275.185 C 121.695 273.447,122.057 269.729,121.733 265.036 C 121.297 258.724,121.977 244.534,122.951 239.606 L 123.715 235.741 120.044 225.378 L 116.374 215.014 116.154 217.415 C 115.948 219.666,113.683 272.329,113.697 274.537 C 113.703 275.449,113.573 275.556,112.447 275.556 C 109.021 275.556,113.951 280.038,117.923 280.535 L 120.074 280.803 119.926 282.065 L 119.779 283.327 141.062 283.423 C 157.691 283.498,162.380 283.620,162.500 283.981 C 162.623 284.350,152.996 284.444,115.185 284.444 C 77.375 284.444,67.747 284.350,67.870 283.981 C 67.983 283.641,69.662 283.492,74.197 283.417 C 77.592 283.361,80.370 283.209,80.370 283.079 C 80.370 282.949,80.092 281.959,79.751 280.878 L 79.132 278.914 77.009 279.135 C 73.648 279.487,71.458 278.363,70.860 275.981 C 70.731 275.465,70.121 274.328,69.506 273.456 C 68.398 271.883,68.394 271.862,69.099 271.083 C 69.806 270.303,69.803 270.291,68.741 269.444 C 67.650 268.574,67.603 267.593,68.634 267.198 C 69.740 266.773,76.180 270.217,77.380 271.873 L 78.519 273.444 78.540 270.889 C 78.552 269.483,78.855 267.208,79.213 265.833 L 79.865 263.333 78.729 263.333 C 77.228 263.332,75.235 262.286,74.298 261.008 C 73.446 259.846,73.330 254.785,74.134 253.817 C 74.451 253.434,74.441 253.093,74.092 252.441 C 73.062 250.516,75.476 248.873,77.317 250.247 C 79.368 251.778,81.155 254.895,81.375 257.325 L 81.581 259.593 82.958 257.482 L 84.335 255.370 83.279 253.251 C 81.952 250.591,81.948 250.654,83.597 248.682 C 85.708 246.156,87.766 246.839,88.322 250.250 C 88.639 252.196,88.241 252.989,85.723 255.433 C 80.310 260.684,77.802 271.892,80.266 279.815 L 80.957 282.037 81.826 279.336 C 82.896 276.012,83.777 274.815,85.155 274.815 C 86.339 274.815,87.598 276.006,87.283 276.828 C 87.164 277.136,87.302 277.519,87.588 277.679 C 88.486 278.181,88.415 280.964,87.479 281.960 C 87.032 282.436,86.667 282.940,86.667 283.079 C 86.667 283.219,90.958 283.333,96.204 283.333 L 105.741 283.333 105.812 281.389 C 105.851 280.319,105.992 278.569,106.125 277.500 C 106.350 275.696,106.312 275.556,105.591 275.556 C 105.164 275.556,104.813 275.431,104.810 275.278 C 104.808 275.125,104.484 272.417,104.091 269.259 C 102.374 255.481,101.708 242.861,102.374 236.759 L 102.668 234.074 98.726 234.074 C 94.578 234.074,90.856 234.687,86.383 236.107 C 81.885 237.536,82.187 238.737,82.307 219.855 L 82.407 203.969 83.364 203.254 C 84.195 202.634,85.030 202.532,89.725 202.474 L 95.129 202.407 95.341 201.481 C 96.071 198.298,96.016 175.556,95.279 175.556 C 94.385 175.556,93.901 173.809,94.570 172.995 C 94.899 172.595,94.891 172.436,94.537 172.316 C 93.712 172.039,94.127 167.472,96.326 152.634 C 97.205 146.703,97.982 144.828,99.570 144.806 C 101.116 144.786,106.098 140.828,107.785 138.280 L 109.458 135.752 112.391 135.875 C 116.214 136.034,116.649 136.236,117.929 138.446 C 118.522 139.468,119.438 140.500,119.966 140.739 C 122.407 141.842,124.881 144.224,126.098 146.642 C 129.750 153.898,133.429 162.736,133.402 164.188 C 133.391 164.759,133.579 165.303,133.820 165.395 C 134.388 165.613,134.330 167.579,133.734 168.297 C 133.341 168.771,133.807 169.120,136.914 170.682 C 141.185 172.829,145.327 175.249,149.180 177.849 C 150.701 178.876,152.549 179.879,153.287 180.079 C 154.026 180.279,155.168 180.849,155.825 181.345 L 157.021 182.247 157.121 151.031 C 157.235 115.922,157.055 118.067,160.013 116.575 C 161.785 115.681,162.245 115.730,167.453 117.368 M116.656 116.648 C 118.516 117.007,120.000 118.403,120.000 119.795 C 120.000 120.271,120.330 121.386,120.733 122.274 C 123.591 128.574,117.448 136.293,110.995 134.511 C 110.204 134.292,109.566 134.286,109.357 134.494 C 109.149 134.703,108.639 134.540,108.048 134.075 C 107.516 133.656,106.480 133.063,105.746 132.756 C 105.013 132.450,104.315 131.912,104.197 131.562 C 104.079 131.212,103.521 129.926,102.956 128.704 C 100.761 123.949,101.421 120.368,104.815 118.617 C 105.731 118.144,106.662 117.517,106.883 117.225 C 107.189 116.820,107.388 116.796,107.717 117.124 C 108.034 117.441,108.148 117.444,108.148 117.133 C 108.148 116.420,113.801 116.097,116.656 116.648 M159.346 117.934 L 157.963 119.202 157.988 151.360 C 158.002 169.047,158.148 184.074,158.312 184.752 C 158.503 185.537,158.456 186.279,158.185 186.789 C 157.872 187.380,157.786 195.031,157.861 215.677 L 157.963 243.761 159.282 244.969 C 160.475 246.063,160.894 246.203,163.665 246.434 C 181.153 247.892,203.991 254.938,228.668 266.487 L 236.192 270.009 282.328 269.912 L 328.464 269.815 329.510 269.038 C 331.584 267.499,331.470 271.221,331.476 204.532 L 331.481 142.582 330.214 141.198 L 328.947 139.815 320.307 139.741 C 315.555 139.700,311.833 139.728,312.037 139.802 C 312.241 139.877,314.976 140.487,318.116 141.158 C 324.000 142.415,325.402 143.024,326.818 144.935 L 327.593 145.980 327.593 203.333 C 327.593 260.682,327.593 260.687,326.829 261.709 C 324.571 264.734,322.862 264.883,313.333 262.889 C 286.088 257.187,260.198 257.862,240.220 264.796 C 237.058 265.894,236.096 265.777,232.566 263.867 C 212.027 252.754,193.030 246.465,170.654 243.371 C 164.759 242.556,163.512 241.997,162.315 239.635 L 161.481 237.991 161.484 181.496 C 161.485 145.561,161.618 124.522,161.850 123.687 C 162.607 120.964,165.313 119.292,169.072 119.227 C 170.924 119.195,170.923 119.194,167.037 117.938 C 162.023 116.318,161.111 116.317,159.346 117.934 M229.742 139.219 C 235.144 143.186,235.173 143.191,241.245 141.323 C 243.514 140.625,245.704 139.978,246.111 139.885 C 246.519 139.792,244.364 139.696,241.323 139.673 C 235.768 139.629,233.538 139.187,226.744 136.778 C 226.396 136.654,227.745 137.753,229.742 139.219 M120.648 200.261 C 121.106 200.350,121.856 200.350,122.315 200.261 C 122.773 200.173,122.398 200.101,121.481 200.101 C 120.565 200.101,120.190 200.173,120.648 200.261 M113.241 200.632 C 113.699 200.720,114.449 200.720,114.907 200.632 C 115.366 200.543,114.991 200.471,114.074 200.471 C 113.157 200.471,112.782 200.543,113.241 200.632 M105.833 201.002 C 106.292 201.090,107.042 201.090,107.500 201.002 C 107.958 200.914,107.583 200.842,106.667 200.842 C 105.750 200.842,105.375 200.914,105.833 201.002 M104.444 306.296 L 104.444 320.000 101.481 320.000 L 98.519 320.000 98.519 306.296 L 98.519 292.593 101.481 292.593 L 104.444 292.593 104.444 306.296 M134.815 298.416 C 134.815 303.807,134.858 304.177,135.395 303.411 C 138.093 299.558,145.237 300.548,147.457 305.083 C 151.867 314.088,142.467 324.989,135.648 318.778 L 134.815 318.019 134.815 319.010 L 134.815 320.000 131.852 320.000 L 128.889 320.000 128.889 306.296 L 128.889 292.593 131.852 292.593 L 134.815 292.593 134.815 298.416 M177.778 306.296 L 177.778 320.000 174.815 320.000 L 171.852 320.000 171.852 306.296 L 171.852 292.593 174.815 292.593 L 177.778 292.593 177.778 306.296 M257.041 301.204 L 257.046 309.815 259.727 305.649 L 262.407 301.483 265.833 301.482 C 269.953 301.481,269.915 301.075,266.235 305.843 C 264.571 307.998,263.210 309.945,263.210 310.169 C 263.210 310.521,266.285 314.966,269.179 318.796 L 270.088 320.000 266.433 319.994 L 262.778 319.987 260.000 315.642 L 257.222 311.296 257.118 315.648 L 257.014 320.000 254.062 320.000 L 251.111 320.000 251.111 306.296 L 251.111 292.593 254.074 292.593 L 257.037 292.593 257.041 301.204 M120.475 301.621 C 123.810 303.048,124.478 304.875,124.722 313.241 L 124.920 320.000 121.904 320.000 L 118.889 320.000 118.889 318.806 C 118.889 317.652,118.871 317.639,118.346 318.388 C 116.325 321.273,109.948 320.952,108.403 317.887 C 105.998 313.114,108.402 309.413,114.500 308.501 C 118.623 307.884,118.889 307.807,118.889 307.215 C 118.889 305.086,114.555 304.540,111.208 306.247 C 109.142 307.301,109.209 307.355,109.334 304.734 L 109.444 302.431 111.481 301.794 C 113.985 301.010,118.831 300.918,120.475 301.621 M164.275 301.807 C 167.157 303.117,168.889 306.425,168.889 310.623 L 168.889 312.593 162.797 312.593 L 156.705 312.593 157.084 313.679 C 157.891 315.994,162.531 316.971,165.445 315.438 C 167.070 314.583,167.037 314.551,167.037 316.978 C 167.037 321.240,157.603 321.946,153.495 317.990 C 145.901 310.679,154.706 297.461,164.275 301.807 M211.838 301.659 C 212.421 301.961,213.251 302.657,213.683 303.206 L 214.468 304.205 215.037 303.394 C 216.580 301.191,221.519 300.346,224.003 301.861 C 226.281 303.250,226.649 304.777,226.659 312.870 L 226.667 320.000 223.704 320.000 L 220.741 320.000 220.735 313.981 C 220.728 306.278,219.867 304.515,216.821 305.973 C 215.222 306.738,214.860 308.302,214.836 314.537 L 214.815 320.000 211.852 320.000 L 208.889 320.000 208.883 313.981 C 208.876 306.278,208.015 304.515,204.969 305.973 C 203.370 306.738,203.008 308.302,202.984 314.537 L 202.963 320.000 200.000 320.000 L 197.037 320.000 197.037 310.741 L 197.037 301.481 200.000 301.481 L 202.963 301.481 202.963 302.761 L 202.963 304.040 203.891 303.113 C 205.807 301.196,209.600 300.502,211.838 301.659 M242.697 301.621 C 246.032 303.048,246.700 304.875,246.945 313.241 L 247.142 320.000 244.127 320.000 L 241.111 320.000 241.111 318.806 C 241.111 317.652,241.093 317.639,240.568 318.388 C 238.547 321.273,232.170 320.952,230.626 317.887 C 228.220 313.114,230.624 309.413,236.722 308.501 C 240.846 307.884,241.111 307.807,241.111 307.215 C 241.111 305.086,236.777 304.540,233.430 306.247 C 231.364 307.301,231.431 307.355,231.556 304.734 L 231.667 302.431 233.704 301.794 C 236.207 301.010,241.053 300.918,242.697 301.621 M283.534 301.807 C 286.417 303.117,288.148 306.425,288.148 310.623 L 288.148 312.593 282.056 312.593 L 275.964 312.593 276.343 313.679 C 277.150 315.994,281.791 316.971,284.704 315.438 C 286.330 314.583,286.296 314.551,286.296 316.978 C 286.296 321.240,276.863 321.946,272.754 317.990 C 265.160 310.679,273.965 297.461,283.534 301.807 M303.631 303.477 C 303.782 306.408,303.639 306.703,302.249 306.304 C 298.519 305.234,297.265 307.238,297.096 314.537 L 296.969 320.000 294.040 320.000 L 291.111 320.000 291.111 310.741 L 291.111 301.481 294.074 301.481 L 297.037 301.481 297.047 302.870 L 297.057 304.259 297.656 303.294 C 298.590 301.789,299.973 301.100,301.852 301.204 L 303.519 301.296 303.631 303.477 M158.074 306.204 C 155.926 308.498,156.203 308.889,159.975 308.889 C 161.822 308.889,163.333 308.747,163.333 308.574 C 163.333 305.559,160.059 304.084,158.074 306.204 M277.333 306.204 C 275.185 308.498,275.462 308.889,279.234 308.889 C 281.081 308.889,282.593 308.747,282.593 308.574 C 282.593 305.559,279.318 304.084,277.333 306.204 M136.797 306.269 C 133.137 308.501,134.796 316.447,138.788 315.799 C 141.100 315.424,142.222 313.659,142.222 310.400 C 142.222 306.400,139.714 304.491,136.797 306.269 M192.593 310.185 L 192.593 312.222 187.593 312.222 L 182.593 312.222 182.593 310.185 L 182.593 308.148 187.593 308.148 L 192.593 308.148 192.593 310.185 M116.481 311.724 C 116.074 311.810,115.368 311.960,114.912 312.057 C 113.488 312.361,112.749 313.877,113.481 314.994 C 115.099 317.464,118.889 315.798,118.889 312.617 C 118.889 311.438,118.506 311.296,116.481 311.724 M238.704 311.724 C 238.296 311.810,237.590 311.960,237.134 312.057 C 235.710 312.361,234.971 313.877,235.703 314.994 C 237.321 317.464,241.111 315.798,241.111 312.617 C 241.111 311.438,240.728 311.296,238.704 311.724 " stroke="none" fill="#542cd3" fill-rule="evenodd"></path>
		<path id="path2" d="M160.013 116.575 C 157.055 118.067,157.235 115.921,157.121 151.038 L 157.021 182.261 155.891 181.457 C 155.270 181.014,154.043 180.436,153.165 180.172 C 152.287 179.908,150.758 179.112,149.766 178.405 C 146.939 176.387,141.645 173.267,137.143 170.963 L 133.020 168.855 130.789 170.446 C 126.844 173.260,127.970 174.159,144.161 181.125 C 148.528 183.005,150.241 183.934,150.997 184.832 C 152.134 186.182,154.490 187.387,156.019 187.399 L 157.037 187.407 157.039 214.537 C 157.042 247.172,156.902 246.273,162.067 246.837 C 183.406 249.169,204.813 255.754,229.441 267.562 L 235.299 270.370 281.958 270.370 C 334.816 270.370,330.330 270.639,331.629 267.393 C 332.620 264.917,332.526 143.705,331.532 141.846 C 330.117 139.200,329.590 139.088,317.972 138.959 C 312.273 138.896,307.745 138.980,307.910 139.145 C 308.074 139.310,312.875 139.528,318.578 139.630 L 328.947 139.815 330.214 141.198 L 331.481 142.582 331.476 204.532 C 331.470 271.221,331.584 267.499,329.510 269.038 L 328.464 269.815 282.328 269.912 L 236.192 270.009 228.668 266.487 C 203.991 254.938,181.153 247.892,163.665 246.434 C 160.894 246.203,160.475 246.063,159.282 244.969 L 157.963 243.761 158.026 215.121 C 158.060 199.369,158.077 185.815,158.062 185.000 C 158.048 184.185,158.020 169.047,158.000 151.360 L 157.963 119.202 159.346 117.934 C 161.116 116.313,162.001 116.316,167.222 117.967 C 169.463 118.675,171.630 119.239,172.037 119.219 C 173.015 119.173,163.420 115.974,162.222 115.948 C 161.713 115.936,160.719 116.218,160.013 116.575 M109.537 116.566 C 108.773 116.646,108.148 116.901,108.148 117.133 C 108.148 117.444,108.034 117.441,107.717 117.124 C 107.388 116.796,107.189 116.820,106.883 117.225 C 106.662 117.517,105.731 118.144,104.815 118.617 C 101.421 120.368,100.761 123.949,102.956 128.704 C 103.521 129.926,104.079 131.212,104.197 131.562 C 104.315 131.912,105.013 132.450,105.746 132.756 C 106.480 133.063,107.507 133.649,108.028 134.059 C 108.549 134.469,109.165 134.686,109.395 134.542 C 109.626 134.397,110.865 134.332,112.148 134.396 C 118.851 134.734,123.493 127.838,120.458 122.050 C 120.134 121.432,119.900 120.479,119.939 119.933 C 120.138 117.075,116.361 115.852,109.537 116.566 M224.630 135.776 C 225.037 136.081,227.699 137.072,230.545 137.980 L 235.720 139.630 241.842 139.593 C 245.208 139.572,248.380 139.422,248.889 139.259 C 249.428 139.087,246.796 138.945,242.593 138.921 L 235.370 138.878 229.630 137.051 C 226.472 136.046,224.222 135.472,224.630 135.776 M176.130 140.335 C 176.504 140.692,226.814 157.407,227.513 157.407 C 228.951 157.407,224.551 155.861,201.805 148.370 C 176.326 139.980,175.478 139.715,176.130 140.335 M175.938 153.981 C 175.956 154.387,227.329 171.313,227.630 171.012 C 227.948 170.694,230.959 171.733,201.609 162.040 C 175.133 153.296,175.919 153.543,175.938 153.981 M249.259 158.148 C 249.259 158.392,259.815 158.519,280.185 158.519 C 300.556 158.519,311.111 158.392,311.111 158.148 C 311.111 157.904,300.556 157.778,280.185 157.778 C 259.815 157.778,249.259 157.904,249.259 158.148 M175.926 167.685 C 175.927 168.043,227.330 185.016,227.599 184.747 C 227.884 184.462,228.377 184.633,201.095 175.583 C 175.588 167.121,175.926 167.227,175.926 167.685 M249.259 171.111 C 249.259 171.355,259.815 171.481,280.185 171.481 C 300.556 171.481,311.111 171.355,311.111 171.111 C 311.111 170.867,300.556 170.741,280.185 170.741 C 259.815 170.741,249.259 170.867,249.259 171.111 M98.053 175.459 C 96.075 175.583,95.935 175.652,96.107 176.407 C 96.315 177.320,95.678 199.786,95.355 202.963 C 94.756 208.834,99.835 210.682,100.905 204.983 L 101.135 203.757 102.882 204.338 C 105.753 205.294,105.556 204.188,105.556 219.329 C 105.556 234.189,105.496 234.673,103.705 234.315 L 102.664 234.107 102.373 236.776 C 101.708 242.860,102.376 255.494,104.091 269.259 C 104.484 272.417,104.808 275.125,104.810 275.278 C 104.813 275.431,105.164 275.556,105.591 275.556 C 106.311 275.556,106.351 275.698,106.132 277.500 C 106.003 278.569,105.862 280.278,105.819 281.296 L 105.741 283.148 112.778 283.148 L 119.815 283.148 119.929 281.974 C 120.042 280.803,120.035 280.798,117.907 280.533 C 116.131 280.311,115.349 279.949,113.256 278.383 C 110.335 276.197,110.100 275.556,112.222 275.556 C 113.593 275.556,113.703 275.479,113.697 274.537 C 113.683 272.329,115.948 219.666,116.154 217.415 L 116.374 215.014 120.044 225.378 L 123.715 235.741 122.951 239.606 C 121.944 244.700,121.290 258.757,121.756 265.280 C 122.114 270.278,121.754 274.224,120.861 275.118 C 120.422 275.557,120.258 276.050,119.831 278.227 C 119.623 279.284,120.355 279.550,126.175 280.535 C 133.131 281.712,133.639 281.720,134.037 280.648 C 134.509 279.381,134.178 278.988,132.254 278.526 C 130.850 278.189,130.017 277.626,128.177 275.770 L 125.865 273.437 126.326 271.898 C 126.771 270.415,126.832 270.368,128.023 270.591 C 128.703 270.719,129.266 270.763,129.274 270.689 C 129.282 270.616,129.532 269.306,129.829 267.778 C 132.776 252.618,134.445 236.202,134.442 222.403 C 134.440 208.097,133.960 205.264,130.790 200.810 L 130.082 199.815 121.985 200.242 C 117.532 200.476,110.856 200.791,107.150 200.942 L 100.411 201.215 100.182 200.303 C 100.056 199.801,100.209 197.555,100.522 195.311 C 101.042 191.585,102.593 176.889,102.593 175.692 C 102.593 175.353,102.194 175.208,101.389 175.255 C 100.727 175.294,99.226 175.385,98.053 175.459 M175.926 181.382 C 175.926 181.788,226.928 198.619,227.523 198.410 C 227.765 198.325,216.630 194.502,202.778 189.914 C 173.151 180.102,175.926 180.984,175.926 181.382 M249.259 184.074 C 249.259 184.318,259.815 184.444,280.185 184.444 C 300.556 184.444,311.111 184.318,311.111 184.074 C 311.111 183.830,300.556 183.704,280.185 183.704 C 259.815 183.704,249.259 183.830,249.259 184.074 M249.259 197.037 C 249.259 197.281,259.815 197.407,280.185 197.407 C 300.556 197.407,311.111 197.281,311.111 197.037 C 311.111 196.793,300.556 196.667,280.185 196.667 C 259.815 196.667,249.259 196.793,249.259 197.037 M249.259 210.000 C 249.259 210.244,259.815 210.370,280.185 210.370 C 300.556 210.370,311.111 210.244,311.111 210.000 C 311.111 209.756,300.556 209.630,280.185 209.630 C 259.815 209.630,249.259 209.756,249.259 210.000 M249.259 222.963 C 249.259 223.207,259.815 223.333,280.185 223.333 C 300.556 223.333,311.111 223.207,311.111 222.963 C 311.111 222.719,300.556 222.593,280.185 222.593 C 259.815 222.593,249.259 222.719,249.259 222.963 " stroke="none" fill="#463a50" fill-rule="evenodd"></path>
		<path id="path3" d="M109.136 136.272 C 108.870 136.591,108.103 137.729,107.433 138.800 C 106.205 140.763,100.880 144.815,99.529 144.815 C 97.989 144.815,97.199 146.743,96.326 152.634 C 94.127 167.472,93.712 172.039,94.537 172.316 C 94.891 172.436,94.899 172.595,94.570 172.995 C 94.333 173.283,94.228 173.979,94.336 174.541 L 94.532 175.564 98.100 175.344 C 100.061 175.223,101.901 175.050,102.187 174.959 C 102.878 174.740,102.567 180.311,101.298 190.883 C 100.230 199.791,100.191 200.695,100.865 200.954 C 101.516 201.204,129.113 199.764,129.614 199.454 C 130.787 198.729,130.033 194.724,128.188 191.873 L 126.377 189.074 126.186 181.562 L 125.995 174.050 128.460 172.069 C 129.816 170.980,131.660 169.592,132.558 168.985 C 134.216 167.865,134.934 165.823,133.820 165.395 C 133.579 165.303,133.391 164.759,133.402 164.188 C 133.429 162.736,129.750 153.898,126.098 146.642 C 124.883 144.228,122.407 141.843,119.977 140.744 C 119.456 140.508,118.492 139.418,117.836 138.320 C 116.529 136.135,116.386 136.074,111.940 135.824 C 110.170 135.724,109.505 135.830,109.136 136.272 M310.370 244.275 C 302.067 247.995,304.775 260.423,313.889 260.423 C 324.773 260.423,325.167 244.216,314.293 243.796 C 312.514 243.727,311.249 243.881,310.370 244.275 M317.424 251.517 L 318.303 252.107 315.372 253.806 C 312.123 255.689,311.852 255.696,311.852 253.893 C 311.852 252.880,311.695 252.622,311.019 252.526 C 310.560 252.461,310.185 252.241,310.185 252.037 C 310.185 251.833,310.560 251.613,311.019 251.548 C 311.688 251.453,311.852 251.193,311.852 250.221 C 311.852 248.275,312.991 248.540,317.424 251.517 M303.455 303.889 C 303.457 305.315,303.523 305.853,303.604 305.084 C 303.684 304.316,303.682 303.149,303.601 302.492 C 303.519 301.834,303.453 302.463,303.455 303.889 M124.593 314.630 C 124.593 317.685,124.650 318.886,124.720 317.298 C 124.790 315.710,124.789 313.210,124.719 311.742 C 124.649 310.275,124.592 311.574,124.593 314.630 M246.815 314.630 C 246.815 317.685,246.873 318.886,246.942 317.298 C 247.012 315.710,247.011 313.210,246.941 311.742 C 246.871 310.275,246.814 311.574,246.815 314.630 " stroke="none" fill="#6c64fb" fill-rule="evenodd"></path>
		<path id="path4" d="M173.796 119.159 C 174.560 119.239,175.810 119.239,176.574 119.159 C 177.338 119.079,176.713 119.013,175.185 119.013 C 173.657 119.013,173.032 119.079,173.796 119.159 M161.662 181.111 C 161.662 212.380,161.706 225.171,161.759 209.537 C 161.813 193.903,161.813 168.319,161.759 152.685 C 161.706 137.051,161.662 149.843,161.662 181.111 M111.944 134.700 C 112.301 134.793,112.884 134.793,113.241 134.700 C 113.597 134.607,113.306 134.530,112.593 134.530 C 111.880 134.530,111.588 134.607,111.944 134.700 M267.870 136.552 C 268.227 136.645,268.810 136.645,269.167 136.552 C 269.523 136.458,269.231 136.382,268.519 136.382 C 267.806 136.382,267.514 136.458,267.870 136.552 M249.060 157.800 C 248.925 158.019,248.915 158.297,249.037 158.420 C 249.159 158.542,249.259 158.448,249.259 158.210 C 249.259 157.633,310.952 157.581,311.238 158.157 C 311.341 158.366,311.383 158.325,311.330 158.065 C 311.203 157.436,249.447 157.174,249.060 157.800 M249.060 170.763 C 248.925 170.982,248.915 171.260,249.037 171.383 C 249.159 171.505,249.259 171.410,249.259 171.173 C 249.259 170.596,310.952 170.544,311.238 171.120 C 311.341 171.329,311.383 171.287,311.330 171.028 C 311.203 170.399,249.447 170.137,249.060 170.763 M98.060 175.447 C 98.521 175.536,99.187 175.532,99.541 175.440 C 99.895 175.347,99.519 175.274,98.704 175.279 C 97.889 175.283,97.599 175.359,98.060 175.447 M96.061 179.815 C 96.062 181.852,96.124 182.638,96.199 181.562 C 96.274 180.485,96.274 178.819,96.198 177.858 C 96.122 176.897,96.060 177.778,96.061 179.815 M102.308 178.889 C 102.308 179.602,102.384 179.894,102.478 179.537 C 102.571 179.181,102.571 178.597,102.478 178.241 C 102.384 177.884,102.308 178.176,102.308 178.889 M101.938 182.963 C 101.938 183.676,102.014 183.968,102.107 183.611 C 102.200 183.255,102.200 182.671,102.107 182.315 C 102.014 181.958,101.938 182.250,101.938 182.963 M249.060 183.726 C 248.925 183.945,248.915 184.223,249.037 184.346 C 249.159 184.468,249.259 184.373,249.259 184.136 C 249.259 183.559,310.952 183.507,311.238 184.083 C 311.341 184.292,311.383 184.250,311.330 183.991 C 311.203 183.362,249.447 183.100,249.060 183.726 M95.683 197.593 C 95.684 199.222,95.749 199.843,95.827 198.972 C 95.905 198.101,95.904 196.767,95.825 196.009 C 95.745 195.250,95.681 195.963,95.683 197.593 M249.060 196.689 C 248.925 196.908,248.915 197.186,249.037 197.309 C 249.159 197.431,249.259 197.336,249.259 197.099 C 249.259 196.522,310.952 196.470,311.238 197.046 C 311.341 197.255,311.383 197.213,311.330 196.954 C 311.203 196.325,249.447 196.063,249.060 196.689 M89.917 202.494 C 90.788 202.572,92.122 202.571,92.880 202.491 C 93.639 202.412,92.926 202.348,91.296 202.349 C 89.667 202.351,89.046 202.416,89.917 202.494 M95.214 205.577 C 95.198 205.895,95.444 206.478,95.761 206.874 C 96.328 207.581,96.332 207.581,95.996 206.852 C 95.809 206.444,95.563 205.861,95.450 205.556 C 95.272 205.076,95.240 205.079,95.214 205.577 M105.353 219.444 C 105.353 227.185,105.402 230.404,105.462 226.598 C 105.523 222.792,105.523 216.459,105.463 212.524 C 105.403 208.590,105.353 211.704,105.353 219.444 M96.389 233.959 C 96.745 234.052,97.329 234.052,97.685 233.959 C 98.042 233.866,97.750 233.790,97.037 233.790 C 96.324 233.790,96.032 233.866,96.389 233.959 M269.722 259.144 C 270.079 259.237,270.662 259.237,271.019 259.144 C 271.375 259.051,271.083 258.975,270.370 258.975 C 269.657 258.975,269.366 259.051,269.722 259.144 M285.097 259.151 C 285.558 259.239,286.224 259.236,286.578 259.143 C 286.932 259.051,286.556 258.978,285.741 258.982 C 284.926 258.986,284.636 259.062,285.097 259.151 M81.000 281.608 C 80.895 281.881,80.958 282.339,81.140 282.626 C 81.380 283.006,81.472 282.871,81.476 282.130 C 81.482 281.024,81.300 280.824,81.000 281.608 M86.047 283.333 C 85.944 283.435,81.848 283.519,76.945 283.519 C 70.144 283.519,67.993 283.628,67.873 283.981 C 67.748 284.350,77.373 284.444,115.185 284.444 C 152.996 284.444,162.623 284.350,162.500 283.981 C 162.346 283.520,86.509 282.877,86.047 283.333 M109.378 304.815 C 109.378 306.139,109.445 306.681,109.527 306.019 C 109.609 305.356,109.609 304.273,109.527 303.611 C 109.445 302.949,109.378 303.491,109.378 304.815 M231.600 304.815 C 231.600 306.139,231.667 306.681,231.749 306.019 C 231.832 305.356,231.832 304.273,231.749 303.611 C 231.667 302.949,231.600 303.491,231.600 304.815 M168.633 310.556 C 168.635 311.778,168.705 312.233,168.787 311.567 C 168.869 310.902,168.868 309.902,168.783 309.345 C 168.699 308.789,168.631 309.333,168.633 310.556 M287.893 310.556 C 287.895 311.778,287.964 312.233,288.046 311.567 C 288.129 310.902,288.127 309.902,288.042 309.345 C 287.958 308.789,287.890 309.333,287.893 310.556 " stroke="none" fill="#a19ebd" fill-rule="evenodd"></path>
	</g>
</svg>